<?xml version="1.0" encoding="utf-8"?>
<!-- Generator: Adobe Illustrator 16.0.0, SVG Export Plug-In . SVG Version: 6.00 Build 0)  -->
<!DOCTYPE svg PUBLIC "-//W3C//DTD SVG 1.1//EN" "http://www.w3.org/Graphics/SVG/1.1/DTD/svg11.dtd">
<svg version="1.1" id="Layer_1" xmlns="http://www.w3.org/2000/svg" xmlns:xlink="http://www.w3.org/1999/xlink" x="0px" y="0px"
	 width="100.25px" height="100.25px" viewBox="0 0 100.25 100.25" enable-background="new 0 0 100.25 100.25" xml:space="preserve">
<g>
	<path d="M50.384,22c-10.863,0-19.673,9.194-19.673,19.669h39.346C70.057,31.194,61.251,22,50.384,22z"/>
	<path d="M37.049,68.085c0.606,0,1.097-0.491,1.098-1.099V51.271c0-0.609-0.493-1.103-1.099-1.103h-6.982
		c-0.606,0-1.098,0.495-1.098,1.103v15.715c0,0.606,0.492,1.099,1.098,1.099H37.049z M31.164,52.371h4.787v13.516h-4.787V52.371z"/>
	<rect x="23.952" y="44.289" width="52.381" height="3.491"/>
	<rect x="23.952" y="71.35" width="52.381" height="3.491"/>
	<path d="M48.586,68.085c0.609,0,1.102-0.491,1.102-1.099V51.271c0-0.609-0.491-1.103-1.101-1.103H41.6
		c-0.606,0-1.1,0.495-1.1,1.103v15.715c0,0.606,0.494,1.099,1.1,1.099H48.586z M42.699,52.371h4.79v13.516h-4.79V52.371z"/>
	<path d="M60.122,68.085c0.608,0,1.099-0.491,1.101-1.099V51.271c0-0.609-0.492-1.103-1.101-1.103h-6.981
		c-0.605,0-1.099,0.495-1.099,1.103v15.715c0,0.606,0.494,1.099,1.099,1.099H60.122z M54.238,52.371h4.785v13.516h-4.785V52.371z"/>
	<path d="M71.662,68.085c0.607,0,1.1-0.491,1.1-1.099V51.271c0-0.609-0.492-1.103-1.1-1.103h-6.988
		c-0.607,0-1.099,0.495-1.099,1.103v15.715c0,0.606,0.493,1.099,1.099,1.099H71.662z M65.771,52.371h4.789v13.516h-4.789V52.371z"/>
</g>
</svg>
