<?xml version="1.0" encoding="utf-8"?>
<!-- Generator: Adobe Illustrator 16.0.0, SVG Export Plug-In . SVG Version: 6.00 Build 0)  -->
<!DOCTYPE svg PUBLIC "-//W3C//DTD SVG 1.1//EN" "http://www.w3.org/Graphics/SVG/1.1/DTD/svg11.dtd">
<svg version="1.1" id="Layer_1" xmlns="http://www.w3.org/2000/svg" xmlns:xlink="http://www.w3.org/1999/xlink" x="0px" y="0px"
	 width="100.25px" height="100.25px" viewBox="0 0 100.25 100.25" enable-background="new 0 0 100.25 100.25" xml:space="preserve">
<g>
	<path d="M30.711,41.669C30.711,31.194,39.521,22,50.384,22c10.867,0,19.673,9.194,19.673,19.669H30.711z"/>
	<path d="M37.049,68.085h-6.983c-0.606,0-1.098-0.492-1.098-1.099V51.271c0-0.607,0.492-1.102,1.098-1.102h6.982
		c0.606,0,1.099,0.493,1.099,1.102v15.715C38.146,67.594,37.655,68.085,37.049,68.085z M31.164,65.887h4.787V52.371h-4.787V65.887z"
		/>
	<rect x="23.952" y="44.289" width="52.381" height="3.491"/>
	<rect x="23.952" y="71.35" width="52.381" height="3.491"/>
	<path d="M48.586,68.085H41.6c-0.606,0-1.1-0.492-1.1-1.099V51.271c0-0.607,0.494-1.102,1.1-1.102h6.987
		c0.61,0,1.101,0.493,1.101,1.102v15.715C49.688,67.594,49.195,68.085,48.586,68.085z M42.699,65.887h4.79V52.371h-4.79V65.887z"/>
	<path d="M60.122,68.085h-6.981c-0.605,0-1.099-0.492-1.099-1.099V51.271c0-0.607,0.493-1.102,1.099-1.102h6.981
		c0.608,0,1.101,0.493,1.101,1.102v15.715C61.221,67.594,60.73,68.085,60.122,68.085z M54.238,65.887h4.785V52.371h-4.785V65.887z"
		/>
	<path d="M71.662,68.085h-6.988c-0.605,0-1.099-0.492-1.099-1.099V51.271c0-0.607,0.491-1.102,1.099-1.102h6.988
		c0.607,0,1.1,0.493,1.1,1.102v15.715C72.762,67.594,72.27,68.085,71.662,68.085z M65.771,65.887h4.789V52.371h-4.789V65.887z"/>
</g>
</svg>
