<?xml version="1.0" encoding="utf-8"?>
<!-- Generator: Adobe Illustrator 16.0.0, SVG Export Plug-In . SVG Version: 6.00 Build 0)  -->
<!DOCTYPE svg PUBLIC "-//W3C//DTD SVG 1.1//EN" "http://www.w3.org/Graphics/SVG/1.1/DTD/svg11.dtd">
<svg version="1.1" id="Layer_1" xmlns="http://www.w3.org/2000/svg" xmlns:xlink="http://www.w3.org/1999/xlink" x="0px" y="0px"
	 width="100.25px" height="100.25px" viewBox="0 0 100.25 100.25" enable-background="new 0 0 100.25 100.25" xml:space="preserve">
<g>
	<path d="M50.195,23.83c-10.862,0-19.673,9.194-19.673,19.669h39.346C69.868,33.024,61.062,23.83,50.195,23.83z"/>
	<path d="M37.031,69.914c0.606,0,1.097-0.49,1.098-1.098V53.102c0-0.609-0.493-1.104-1.099-1.104h-6.982
		c-0.606,0-1.098,0.495-1.098,1.104v15.715c0,0.605,0.492,1.098,1.098,1.098H37.031z M31.146,54.201h4.787v13.516h-4.787V54.201z"/>
	<path d="M48.568,69.914c0.609,0,1.102-0.49,1.102-1.098V53.102c0-0.609-0.491-1.104-1.101-1.104h-6.987
		c-0.606,0-1.1,0.495-1.1,1.104v15.715c0,0.605,0.494,1.098,1.1,1.098H48.568z M42.682,54.201h4.79v13.516h-4.79V54.201z"/>
	<path d="M60.104,69.914c0.608,0,1.099-0.49,1.101-1.098V53.102c0-0.609-0.492-1.104-1.101-1.104h-6.981
		c-0.604,0-1.099,0.495-1.099,1.104v15.715c0,0.605,0.494,1.098,1.099,1.098H60.104z M54.221,54.201h4.785v13.516h-4.785V54.201z"/>
	<path d="M71.645,51.998h-6.988c-0.607,0-1.099,0.495-1.099,1.104v15.715c0,0.605,0.493,1.098,1.099,1.098h6.988
		c0.607,0,1.1-0.49,1.1-1.098V53.102C72.744,52.492,72.252,51.998,71.645,51.998z M70.543,67.717h-4.789V54.201h4.789V67.717z"/>
</g>
<rect x="82.625" y="37.958" width="0" height="0"/>
<path d="M23.688,75.896h53.017v-4H23.688V75.896z M23.688,45.896v4h53.017v-4H23.688z"/>
</svg>
