<?xml version="1.0" encoding="utf-8"?>
<!-- Generator: Adobe Illustrator 16.0.0, SVG Export Plug-In . SVG Version: 6.00 Build 0)  -->
<!DOCTYPE svg PUBLIC "-//W3C//DTD SVG 1.1//EN" "http://www.w3.org/Graphics/SVG/1.1/DTD/svg11.dtd">
<svg version="1.1" id="Layer_1" xmlns="http://www.w3.org/2000/svg" xmlns:xlink="http://www.w3.org/1999/xlink" x="0px" y="0px"
	 width="100.25px" height="100.25px" viewBox="0 0 100.25 100.25" enable-background="new 0 0 100.25 100.25" xml:space="preserve">
<path d="M63.403,64.568v-23.17l-12-12h-16c-2.211,0-3.98,1.789-3.98,4l-0.02,32c0,2.209,1.77,4,3.98,4h24.02
	c0.891,0,1.709-0.301,2.369-0.801l-8.869-8.869c-1.57,1.049-3.461,1.67-5.5,1.67c-5.52,0-10-4.48-10-10c0-5.521,4.48-10,10-10
	s10,4.479,10,10c0,2.039-0.621,3.93-1.66,5.51L63.403,64.568z M41.403,51.398c0,3.311,2.689,6,6,6s6-2.689,6-6c0-3.311-2.689-6-6-6
	S41.403,48.087,41.403,51.398z"/>
</svg>
