<?xml version="1.0" encoding="utf-8"?>
<!-- Generator: Adobe Illustrator 16.0.0, SVG Export Plug-In . SVG Version: 6.00 Build 0)  -->
<!DOCTYPE svg PUBLIC "-//W3C//DTD SVG 1.1//EN" "http://www.w3.org/Graphics/SVG/1.1/DTD/svg11.dtd">
<svg version="1.1" id="Layer_1" xmlns="http://www.w3.org/2000/svg" xmlns:xlink="http://www.w3.org/1999/xlink" x="0px" y="0px"
	 width="100.25px" height="100.25px" viewBox="0 0 100.25 100.25" enable-background="new 0 0 100.25 100.25" xml:space="preserve">
<g>
	<g>
		<path d="M49.195,31.035c-3.63,0.037-7.237,0.314-10.654,0.836l7.5,27.767c0.934-0.128,1.995-0.223,3.195-0.253L49.195,31.035z"/>
		<path d="M63.634,32.17l-7.546,27.9c1.535,0.369,2.612,0.79,3.117,1.009l14.051-26.092C70.546,33.782,67.271,32.833,63.634,32.17z"
			/>
		<path d="M42.603,60.402c0.464-0.153,1.008-0.306,1.641-0.446l-7.508-27.792c-2.995,0.547-5.803,1.284-8.264,2.236L42.603,60.402z"
			/>
		<path d="M38.968,57.521l-5.842,3.47c-0.147,0.086-0.307,0.131-0.464,0.131c-0.312,0-0.612-0.164-0.784-0.449
			c-0.256-0.433-0.115-0.988,0.317-1.25l5.901-3.502L36.1,52.245l-6.096,3.62c-0.144,0.087-0.305,0.128-0.464,0.128
			c-0.309,0-0.612-0.16-0.782-0.447c-0.255-0.431-0.113-0.988,0.316-1.243l6.154-3.659l-2.205-4.057l-6.094,3.625
			c-0.145,0.088-0.305,0.129-0.463,0.129c-0.312,0-0.613-0.16-0.785-0.449c-0.256-0.43-0.113-0.99,0.317-1.245l6.155-3.659
			l-1.962-3.613l-6.078,3.611c-0.147,0.087-0.308,0.128-0.466,0.128c-0.309,0-0.614-0.157-0.782-0.444
			c-0.257-0.435-0.115-0.99,0.316-1.248l6.14-3.644l-2.516-4.638l0.125-0.07c-0.318,0.143-0.663,0.275-0.964,0.423l-10.068,5.955
			l14.801,25.409l9.778-5.509c0,0,0.146-0.101,0.431-0.25L38.968,57.521z"/>
		<path d="M61.826,31.888c-3.439-0.526-7.105-0.821-10.812-0.863l0.041,28.364c1.188,0.042,2.272,0.161,3.246,0.317L61.826,31.888z"
			/>
	</g>
	<path d="M74.904,35.771L60.788,61.976l8.821,5.25L84.352,40.97L74.904,35.771z M66.475,60.486c-0.875,0-1.582-0.707-1.582-1.571
		c0-0.873,0.707-1.578,1.582-1.578c0.866,0,1.572,0.705,1.572,1.578C68.047,59.779,67.341,60.486,66.475,60.486z M71.452,57.661
		c-0.874,0-1.581-0.701-1.581-1.572c0-0.87,0.708-1.576,1.581-1.576s1.575,0.706,1.575,1.576
		C73.027,56.958,72.326,57.661,71.452,57.661z M71.452,51.925c-0.876,0-1.581-0.709-1.581-1.581c0-0.869,0.705-1.576,1.581-1.576
		c0.874,0,1.575,0.707,1.575,1.576C73.027,51.214,72.326,51.925,71.452,51.925z M73.845,42.067c0-0.873,0.705-1.578,1.574-1.578
		c0.875,0,1.578,0.705,1.578,1.578c0,0.87-0.702,1.575-1.578,1.575C74.55,43.643,73.845,42.938,73.845,42.067z M76.264,49.428
		c-0.873,0-1.576-0.709-1.576-1.58s0.703-1.578,1.576-1.578c0.869,0,1.575,0.707,1.575,1.578
		C77.838,48.719,77.133,49.428,76.264,49.428z"/>
</g>
</svg>
