<?xml version="1.0" encoding="utf-8"?>
<!-- Generator: Adobe Illustrator 16.0.0, SVG Export Plug-In . SVG Version: 6.00 Build 0)  -->
<!DOCTYPE svg PUBLIC "-//W3C//DTD SVG 1.1//EN" "http://www.w3.org/Graphics/SVG/1.1/DTD/svg11.dtd">
<svg version="1.1" id="Layer_1" xmlns="http://www.w3.org/2000/svg" xmlns:xlink="http://www.w3.org/1999/xlink" x="0px" y="0px"
	 width="100.25px" height="100.25px" viewBox="0 0 100.25 100.25" enable-background="new 0 0 100.25 100.25" xml:space="preserve">
<path d="M61.402,33.471h-8.371c-0.818-2.32-3.02-4-5.629-4s-4.811,1.68-5.631,4h-8.369c-2.211,0-4,1.79-4,4v28c0,2.211,1.789,4,4,4
	h28c2.209,0,4-1.789,4-4v-28C65.402,35.261,63.611,33.471,61.402,33.471z M47.402,33.471c1.1,0,2,0.89,2,2s-0.9,2-2,2s-2-0.89-2-2
	S46.303,33.471,47.402,33.471z M51.402,61.471h-14v-4h14V61.471z M57.402,53.471h-20v-4h20V53.471z M57.402,45.471h-20v-4h20V45.471
	z"/>
</svg>
