<?xml version="1.0" encoding="utf-8"?>
<!-- Generator: Adobe Illustrator 16.0.0, SVG Export Plug-In . SVG Version: 6.00 Build 0)  -->
<!DOCTYPE svg PUBLIC "-//W3C//DTD SVG 1.1//EN" "http://www.w3.org/Graphics/SVG/1.1/DTD/svg11.dtd">
<svg version="1.1" id="Layer_1" xmlns="http://www.w3.org/2000/svg" xmlns:xlink="http://www.w3.org/1999/xlink" x="0px" y="0px"
	 width="100.25px" height="100.25px" viewBox="0 0 100.25 100.25" enable-background="new 0 0 100.25 100.25" xml:space="preserve">
<path d="M50.125,82.573c15.838,0,28.682-12.844,28.682-28.682C62.969,53.892,50.125,66.735,50.125,82.573z M29.745,45.128
	c0,4.397,3.569,7.967,7.967,7.967c1.673,0,3.235-0.525,4.51-1.402l-0.064,0.605c0,4.397,3.57,7.968,7.967,7.968
	s7.967-3.57,7.967-7.968l-0.063-0.605c1.29,0.893,2.837,1.402,4.51,1.402c4.397,0,7.967-3.569,7.967-7.967
	c0-3.171-1.864-5.896-4.558-7.17c2.677-1.274,4.558-4,4.558-7.17c0-4.397-3.569-7.967-7.967-7.967c-1.673,0-3.235,0.526-4.51,1.402
	l0.063-0.605c0-4.397-3.569-7.967-7.967-7.967s-7.967,3.57-7.967,7.967l0.064,0.605c-1.29-0.892-2.837-1.402-4.51-1.402
	c-4.397,0-7.967,3.57-7.967,7.967c0,3.171,1.864,5.896,4.558,7.17C31.609,39.232,29.745,41.957,29.745,45.128z M50.125,29.99
	c4.397,0,7.967,3.57,7.967,7.967s-3.569,7.967-7.967,7.967s-7.967-3.569-7.967-7.967S45.728,29.99,50.125,29.99z M21.443,53.892
	c0,15.838,12.844,28.682,28.682,28.682C50.125,66.735,37.281,53.892,21.443,53.892z"/>
</svg>
