<?xml version="1.0" encoding="utf-8"?>
<!-- Generator: Adobe Illustrator 16.0.0, SVG Export Plug-In . SVG Version: 6.00 Build 0)  -->
<!DOCTYPE svg PUBLIC "-//W3C//DTD SVG 1.1//EN" "http://www.w3.org/Graphics/SVG/1.1/DTD/svg11.dtd">
<svg version="1.1" id="Layer_1" xmlns="http://www.w3.org/2000/svg" xmlns:xlink="http://www.w3.org/1999/xlink" x="0px" y="0px"
	 width="100.25px" height="100.25px" viewBox="0 0 100.25 100.25" enable-background="new 0 0 100.25 100.25" xml:space="preserve">
<g>
	<g>
		<g>
			<polygon points="65.859,54.56 53.955,54.56 53.955,66.466 42.046,66.466 42.046,54.56 28.947,54.56 28.947,42.653 42.046,42.653 
				42.046,29.555 53.955,29.555 53.955,42.653 65.859,42.653 			"/>
		</g>
	</g>
	<defs>
		<filter id="Adobe_OpacityMaskFilter" filterUnits="userSpaceOnUse" x="28.947" y="29.555" width="36.912" height="36.911">
			<feColorMatrix  type="matrix" values="1 0 0 0 0  0 1 0 0 0  0 0 1 0 0  0 0 0 1 0"/>
		</filter>
	</defs>
	<mask maskUnits="userSpaceOnUse" x="28.947" y="29.555" width="36.912" height="36.911" id="SVGID_2_">
		<g filter="url(#Adobe_OpacityMaskFilter)">
			
				<image overflow="visible" enable-background="new    " width="115" height="113" xlink:href="CFC9DFA77F857397.jpg"  transform="matrix(0.348 0 0 0.3542 27.4585 28.0664)">
			</image>
		</g>
	</mask>
	<g opacity="0.75" mask="url(#SVGID_2_)">
		<g>
			<polygon points="65.859,54.56 53.955,54.56 53.955,66.466 42.046,66.466 42.046,54.56 28.947,54.56 28.947,42.653 42.046,42.653 
				42.046,29.555 53.955,29.555 53.955,42.653 65.859,42.653 			"/>
		</g>
	</g>
</g>
</svg>
