<?xml version="1.0" encoding="utf-8"?>
<!-- Generator: Adobe Illustrator 16.0.0, SVG Export Plug-In . SVG Version: 6.00 Build 0)  -->
<!DOCTYPE svg PUBLIC "-//W3C//DTD SVG 1.1//EN" "http://www.w3.org/Graphics/SVG/1.1/DTD/svg11.dtd">
<svg version="1.1" id="Layer_1" xmlns="http://www.w3.org/2000/svg" xmlns:xlink="http://www.w3.org/1999/xlink" x="0px" y="0px"
	 width="100.25px" height="100.25px" viewBox="0 0 100.25 100.25" enable-background="new 0 0 100.25 100.25" xml:space="preserve">
<path d="M64.905,28.757c-5.66,0-11.379-2.253-14.762-6.757c-3.392,4.504-9.11,6.757-14.768,6.757c-2.922,0-5.831-0.603-8.386-1.811
	c0.28,7.602,0.844,15.307,2.123,22.811c0.646,4.114,1.285,8.966,3.536,12.565c1.979,3.467,5.056,6.298,8.348,8.499
	c2.503,1.666,5.229,3.032,8.061,4.041c0.455,0.155,0.803,0.228,1.116,0.228c0.558,0,1.021-0.211,1.825-0.514
	c6.521-2.502,13.518-7.111,16.396-13.729c2.588-5.891,3.16-12.889,3.828-19.213c0.512-4.879,0.883-9.783,1.071-14.688
	C70.735,28.154,67.825,28.757,64.905,28.757z M56.429,54.486l-6.133-3.227l-6.134,3.227l1.174-6.831l-4.961-4.839l6.856-0.996
	l3.064-6.213l3.07,6.213l6.856,0.996l-4.966,4.839L56.429,54.486z"/>
</svg>
