<?xml version="1.0" encoding="utf-8"?>
<!-- Generator: Adobe Illustrator 16.0.0, SVG Export Plug-In . SVG Version: 6.00 Build 0)  -->
<!DOCTYPE svg PUBLIC "-//W3C//DTD SVG 1.1//EN" "http://www.w3.org/Graphics/SVG/1.1/DTD/svg11.dtd">
<svg version="1.1" id="Layer_1" xmlns="http://www.w3.org/2000/svg" xmlns:xlink="http://www.w3.org/1999/xlink" x="0px" y="0px"
	 width="100.25px" height="100.25px" viewBox="0 0 100.25 100.25" enable-background="new 0 0 100.25 100.25" xml:space="preserve">
<g>
	<g>
		<path d="M61.977,69.883c-2.438,1.904-5.711,3.045-9.518,3.352v4.414h-4.34v-4.414c-3.351-0.307-6.549-1.525-8.985-3.352
			c-3.579-2.818-5.482-6.777-5.482-11.648h6.396c0,4.645,2.969,7.992,8.07,8.754V52.371c-7.081-1.598-13.4-4.795-13.4-12.41
			c0-7.004,5.254-11.953,13.4-12.714v-4.644h4.339v4.719c8.375,0.839,13.322,6.474,13.322,13.934h-6.471
			c0-4.341-2.436-7.081-6.852-7.766v13.324c9.211,2.057,14.541,5.024,14.541,12.94C67,63.871,65.248,67.445,61.977,69.883z
			 M48.119,33.49c-4.417,0.609-7.006,2.971-7.006,6.319c0,2.588,1.676,4.491,7.006,6.017V33.49z M52.459,53.285v13.703
			c5.633-0.607,8.066-3.426,8.066-7.078C60.527,57.168,59.613,55.037,52.459,53.285z"/>
	</g>
</g>
</svg>
