<svg xmlns="http://www.w3.org/2000/svg" viewBox="0 0 100 125"><path fill="#fff" d="M63.4 71.1l2.1 2.1-1.4 1.4 19.7 19.7c2.9 2.9 7.6 2.9 10.5 0 2.9-2.9 2.9-7.6 0-10.5L74.6 64.1l-1.4 1.4-2.1-2.1c10.9-14.7 9.8-35.5-3.6-48.9-14.6-14.6-38.3-14.6-53 0-14.6 14.6-14.6 38.3 0 53C27.8 80.8 48.7 82 63.4 71.1zM21.2 21.2c10.9-10.9 28.7-10.9 39.6 0 10.9 10.9 10.9 28.7 0 39.6-10.9 10.9-28.7 10.9-39.6 0-10.9-10.9-10.9-28.7 0-39.6zm9.4 31.6c.3-1 .5-2 .8-2.9.4-1.1.7-1.3 1.7-.7 1.8.9 3.7 1.4 5.6 1.7 1.3.2 2.5 0 3.7-.5 2.2-1 2.5-3.5.7-5-.6-.5-1.4-.9-2.1-1.2-1.9-.8-3.9-1.5-5.8-2.6-3-1.8-4.8-4.2-4.6-7.8.2-4.1 2.5-6.6 6.3-8 1.5-.6 1.5-.5 1.6-2.1v-1.6c0-1.2.2-1.4 1.4-1.5H41c2.6 0 2.6 0 2.6 2.6 0 1.8 0 1.8 1.8 2.1 1.4.2 2.7.6 4 1.2.7.3 1 .8.8 1.6-.3 1.1-.6 2.2-1 3.3-.3 1-.7 1.2-1.7.7-2-1-4.1-1.4-6.3-1.3-.6 0-1.1.1-1.7.3-1.9.8-2.2 3-.6 4.3.8.7 1.8 1.1 2.7 1.5 1.7.7 3.4 1.4 5 2.3 5.1 2.8 6.5 9.3 2.9 13.7-1.3 1.6-3 2.7-5 3.2-.9.2-1.3.7-1.2 1.6v2.7c0 .8-.4 1.2-1.2 1.2h-2.9c-.8 0-1.2-.5-1.2-1.3v-1.9c0-1.4-.1-1.5-1.4-1.7-1.8-.3-3.5-.7-5.1-1.5-1.2-.7-1.3-1-.9-2.4z"/></svg>