<svg version="1" xmlns="http://www.w3.org/2000/svg" viewBox="0 0 98.802 100"><path fill="#fff" d="M88.496 55.794V35.826c0-2.833 2.319-5.139 5.169-5.139a5.141 5.141 0 0 1 5.138 5.139V63.17c0 3.78-1.36 7.434-3.802 10.286L77.949 91.564c-1.691 1.593-2.106 3.004-2.106 5.14V100h-18.56l-.021-7.844c0-2.986-.244-6.979 3.495-10.896l21.635-21.725a4.086 4.086 0 0 1 2.853-1.149 4.105 4.105 0 0 1 4.105 4.097c0 .977-.346 1.924-.977 2.67L77.938 76.332c-.677.793-1.82 2.287-2.389 4.118-.308.951-.395 1.879-.412 2.941h3.359c.014-.758.069-1.366.251-1.931.328-1.057.983-2.006 1.475-2.616l10.593-11.626c1.332-1.343 2.062-3.082 2.062-4.909-.001-2.745-1.651-5.269-4.381-6.515zm-78.19 0V35.826c0-2.833-2.319-5.139-5.169-5.139A5.14 5.14 0 0 0 0 35.826V63.17c0 3.78 1.36 7.434 3.802 10.286l17.052 18.107c1.691 1.593 2.106 3.004 2.106 5.14V100h18.559l.021-7.844c0-2.986.244-6.979-3.495-10.896L16.41 59.537a4.086 4.086 0 0 0-2.853-1.149 4.105 4.105 0 0 0-3.128 6.767l10.436 11.178c.677.793 1.821 2.287 2.389 4.118.307.951.394 1.879.412 2.941h-3.359c-.014-.758-.07-1.366-.251-1.931-.328-1.057-.983-2.006-1.475-2.616L7.987 67.218c-1.333-1.343-2.061-3.082-2.061-4.909 0-2.745 1.649-5.269 4.38-6.515zM51.354 8.845a4.407 4.407 0 0 0 0-8.813 4.406 4.406 0 0 0 0 8.813zm-23.902.024c-2.469 0-4.468-1.981-4.468-4.436C22.984 1.984 24.983 0 27.452 0s4.475 1.984 4.475 4.433c0 2.455-2.006 4.436-4.475 4.436z"/><g fill="#fff"><circle cx="73.244" cy="22.786" r="3.09"/><path d="M77.718 27.4h-8.336c-.038 0-2.79-.251-2.79-.251L63.101 14.98c-1.406-4.9-5.515-4.75-5.515-4.75h-11.3s-4.105-.15-5.51 4.75l-1.723 5.992-1.719-5.992c-1.413-4.9-5.511-4.75-5.511-4.75h-8.744s-4.108-.15-5.514 4.75l-3.52 12.263c-.334 1.147.293 2.019 1.297 2.309 1.001.286 2.026-.22 2.285-1.133l3.428-11.953 1.67-.003-5.005 20.696h4.423V51.86c0 1.21.977 2.197 2.19 2.197 1.21 0 2.201-.987 2.201-2.197V37.159h1.855V51.86c0 1.21.977 2.197 2.187 2.197a2.203 2.203 0 0 0 2.204-2.197V37.159h4.346l-4.953-20.696 1.664.003 3.39 11.827c.056.202.146.387.265.547.332.502.91.781 1.556.76.645.021 1.221-.254 1.552-.75.14-.178.234-.384.29-.61l3.373-11.775 1.538-.003v34.972a2.592 2.592 0 0 0 2.595 2.585 2.583 2.583 0 0 0 2.584-2.585V31.537h1.911v19.897a2.582 2.582 0 0 0 2.581 2.585 2.596 2.596 0 0 0 2.602-2.585V16.462l1.671.003 3.282 11.953c.178.589.669.977 1.259 1.126.024.007.038.018.06.024.522.119 2.934.802 4.705 1.308v21.69c0 1.001.819 1.813 1.82 1.813s1.814-.812 1.814-1.813V41.73h1.423v10.836c0 1.001.812 1.813 1.813 1.813s1.824-.812 1.824-1.813V32.305h1.395v6.864c0 .753.61 1.36 1.354 1.36.746 0 1.336-.607 1.336-1.36v-7.81c.001-2.184-1.924-3.959-4.112-3.959z"/></g></svg>