<svg xmlns="http://www.w3.org/2000/svg" viewBox="0 0 58.334 83.332"><path fill="#fff" d="M52.778 77.777H5.556L0 83.332h58.334zm4.4-46.689l.002-.006-.04-.027-.073-.047-26.511-14.946v-4.378c4.894 2.449 8.925-1.771 15.278.768V2.778C39.48.239 35.449 4.459 30.556 2.01v-.621a1.388 1.388 0 1 0-2.778 0v14.673L1.268 31.008l-.073.047-.04.027.002.006A2.764 2.764 0 0 0 0 33.334a2.778 2.778 0 0 0 2.778 2.777h5.556V75h8.333V40.277H25V75h8.334V40.277h8.333V75H50V36.111h5.556a2.778 2.778 0 0 0 2.778-2.777c0-.928-.459-1.742-1.156-2.246z"/></svg>