<svg xmlns="http://www.w3.org/2000/svg" height="100" viewBox="0 0 100 100" width="100"><g fill="#4d4d4d"><path d="M75.337 8.74H24.593v.007c-4.183.04-7.602 3.268-7.602 7.214v68.08c0 3.98 3.456 7.22 7.683 7.22H75.34c4.219 0 7.67-3.24 7.67-7.22V15.96c-.001-3.969-3.452-7.22-7.672-7.22zm-39.74 74.188h-8.272c-1.523 0-2.759-1.145-2.759-2.596 0-1.419 1.229-2.58 2.759-2.58h8.27c1.522 0 2.758 1.161 2.758 2.58 0 1.451-1.232 2.596-2.756 2.596zm0-9.897h-8.272c-1.523 0-2.759-1.16-2.759-2.595 0-1.435 1.229-2.596 2.759-2.596h8.27c1.522 0 2.758 1.16 2.758 2.596.002 1.434-1.232 2.595-2.756 2.595zm0-9.896h-8.272c-1.523 0-2.759-1.16-2.759-2.596 0-1.436 1.229-2.596 2.759-2.596h8.27c1.522 0 2.758 1.162 2.758 2.596.002 1.434-1.232 2.596-2.756 2.596zm0-9.897h-8.272c-1.523 0-2.759-1.16-2.759-2.603 0-1.435 1.229-2.595 2.759-2.595h8.27c1.522 0 2.758 1.16 2.758 2.595 0 1.427-1.232 2.603-2.756 2.603zm18.542 29.69h-8.27c-1.53 0-2.768-1.145-2.768-2.596 0-1.419 1.233-2.58 2.768-2.58h8.27c1.525 0 2.758 1.161 2.758 2.58-.001 1.451-1.234 2.596-2.758 2.596zm0-9.897h-8.27c-1.53 0-2.768-1.16-2.768-2.595 0-1.435 1.233-2.596 2.768-2.596h8.27c1.525 0 2.758 1.16 2.758 2.596-.001 1.434-1.234 2.595-2.758 2.595zm0-9.896h-8.27c-1.53 0-2.768-1.16-2.768-2.596 0-1.436 1.233-2.596 2.768-2.596h8.27c1.525 0 2.758 1.162 2.758 2.596-.001 1.434-1.234 2.596-2.758 2.596zm0-9.897h-8.27c-1.53 0-2.768-1.16-2.768-2.603 0-1.435 1.233-2.595 2.768-2.595h8.27c1.525 0 2.758 1.16 2.758 2.595-.001 1.427-1.234 2.603-2.758 2.603zm18.536 29.69h-8.27c-1.525 0-2.757-1.145-2.757-2.596 0-1.419 1.228-2.58 2.757-2.58h8.27c1.524 0 2.758 1.161 2.758 2.58-.002 1.451-1.234 2.596-2.758 2.596zm0-9.897h-8.27c-1.525 0-2.757-1.16-2.757-2.595 0-1.435 1.228-2.596 2.757-2.596h8.27c1.524 0 2.758 1.16 2.758 2.596 0 1.434-1.234 2.595-2.758 2.595zm0-9.896h-8.27c-1.525 0-2.757-1.16-2.757-2.596 0-1.436 1.228-2.596 2.757-2.596h8.27c1.524 0 2.758 1.162 2.758 2.596 0 1.434-1.234 2.596-2.758 2.596zm0-9.897h-8.27c-1.525 0-2.757-1.16-2.757-2.603 0-1.435 1.228-2.595 2.757-2.595h8.27c1.524 0 2.758 1.16 2.758 2.595-.002 1.427-1.234 2.603-2.758 2.603zm2.043-11.194H25.285c-.485 0-.877-.37-.877-.825V19.61c0-.456.395-.826.877-.826H74.72c.485 0 .877.37.877.826v21.608c-.002.455-.395.825-.88.825z"/><path d="M37.737 28.549l-.18.08c-.439.194-.873.016-.968-.4-.094-.416.182-.91.62-1.1l.822-.361a4.95 4.95 0 0 1 1.67-.349h.015c.487 0 .877.37.877.826v6.935c0 .455-.39.825-.877.825h-.308c-.489 0-.878-.37-.878-.825v-5.152c.002-.456-.355-.674-.793-.48zm8.691 5.849c0-.336.262-.833.589-1.11l.59-.502c1.992-1.678 2.96-2.642 2.988-3.646 0-.7-.448-1.255-1.5-1.255-.436 0-.849.116-1.208.278-.434.197-.878.113-1.045-.285-.164-.395.015-.948.453-1.142a5.58 5.58 0 0 1 2.24-.463c2.063 0 3.196 1.136 3.196 2.695 0 1.44-1.11 2.588-2.426 3.698l-.423.33c-.23.183-.024.345.46.349.517.004 1.17.005 1.686.007.486 0 .877.37.877.826v.001c0 .455-.39.825-.877.825h-4.716c-.492.001-.884-.271-.884-.606zm11.806-1.047c.391.12.847.214 1.31.214 1.111 0 1.669-.502 1.669-1.15 0-.845-.9-1.228-1.84-1.228h-.43c-.239 0-.435-.323-.435-.72 0-.398.189-.72.417-.72h.412c.715-.013 1.633-.264 1.633-.991 0-.515-.452-.898-1.349-.898-.38 0-.769.078-1.111.183-.46.141-.897.007-1.015-.394-.123-.402.12-.924.574-1.068a6.926 6.926 0 0 1 2.026-.306c1.952 0 3.032.964 3.032 2.14 0 .667-.292 1.227-.89 1.625-.395.263-.385.43.037.655.684.366 1.159 1.005 1.159 1.827 0 1.52-1.42 2.631-3.73 2.631a6.682 6.682 0 0 1-1.914-.27c-.459-.14-.703-.675-.577-1.09.114-.417.562-.58 1.022-.44z"/></g></svg>