<svg xmlns="http://www.w3.org/2000/svg" height="100" width="100"><g fill="#4d4d4d"><path d="M17.636 56.615c-1.375 0-2.483 1.055-2.483 2.364v8.753c0 1.309 1.108 2.36 2.483 2.36h6.136l3.012 17.873h46.432l3.012-17.873h6.136c1.375 0 2.483-1.051 2.483-2.36v-8.753c0-1.31-1.108-2.364-2.483-2.364H17.636z"/><path d="M41.724 37.704c-.642.24-7.904 2.966-9.925 4.281-2.114 1.376-3.414 2.927-4.539 5.29-1.104 2.317-1.802 5-1.828 7.464 7.627-.044 15.255-.045 22.883-.035a95.693 95.693 0 0 1-2.005-3.687c-1.966-3.937-3.474-8.58-4.586-13.313zm16.547 0c-1.113 4.733-2.615 9.376-4.581 13.313a94.062 94.062 0 0 1-2.015 3.692c7.631.011 15.262.022 22.893-.004-.033-2.454-.725-5.124-1.823-7.43-1.125-2.363-2.425-3.914-4.54-5.29-2.016-1.313-9.27-4.033-9.934-4.28zm-10.3 4.934a.385.373 0 0 0-.337.444l.597 2.957a.385.373 0 0 0 .38.306h2.773a.385.373 0 0 0 .38-.306l.596-2.957a.385.373 0 0 0-.379-.444h-3.968a.385.373 0 0 0-.041 0zm.676 4.458a.385.373 0 0 0-.338.292l-.742 3.134c.699 1.43 1.464 2.829 2.306 4.187h.233a45.382 45.382 0 0 0 2.327-4.182l-.743-3.139a.385.373 0 0 0-.379-.292h-2.623a.385.373 0 0 0-.041 0zM50.004 12.035c-4.936.063-7.603 2.165-8.883 4.277-1.279 2.111-1.26 4.225-1.26 4.244l-.053 3.662c-.066.03-.137.052-.197.092a1.592 1.592 0 0 0-.568.721c-.225.538-.251 1.131-.251 1.887 0 2.39 1.446 4.662 2.882 5.994 1.124 3.953 4.38 6.921 8.33 7.032 3.95-.11 7.198-3.08 8.322-7.032 1.435-1.332 2.882-3.604 2.882-5.994 0-.756-.027-1.349-.25-1.887a1.592 1.592 0 0 0-.569-.72c-.06-.041-.131-.062-.197-.093 0 0 .228-1.898-.054-3.626-.281-1.727-.755-2.89-1.735-3.626-.338-2.135-1.378-3.106-3.233-3.887a14.096 14.096 0 0 0-5.166-1.044z" style="text-indent:0;text-align:start;line-height:normal;text-transform:none;block-progression:tb;-inkscape-font-specification:Sans" font-weight="400" color="#2d2d2d" overflow="visible" font-family="Sans"/></g></svg>