<?xml version="1.0" encoding="UTF-8" standalone="no"?>
<svg
   xmlns:dc="http://purl.org/dc/elements/1.1/"
   xmlns:cc="http://creativecommons.org/ns#"
   xmlns:rdf="http://www.w3.org/1999/02/22-rdf-syntax-ns#"
   xmlns:svg="http://www.w3.org/2000/svg"
   xmlns="http://www.w3.org/2000/svg"
   xmlns:sodipodi="http://sodipodi.sourceforge.net/DTD/sodipodi-0.dtd"
   xmlns:inkscape="http://www.inkscape.org/namespaces/inkscape"
   height="100"
   viewBox="0 0 100 100"
   width="100"
   id="svg2"
   version="1.1"
   inkscape:version="0.48.5 r10040"
   sodipodi:docname="direccion_ejecutiva.svg">
  <metadata
     id="metadata10">
    <rdf:RDF>
      <cc:Work
         rdf:about="">
        <dc:format>image/svg+xml</dc:format>
        <dc:type
           rdf:resource="http://purl.org/dc/dcmitype/StillImage" />
      </cc:Work>
    </rdf:RDF>
  </metadata>
  <defs
     id="defs8" />
  <sodipodi:namedview
     pagecolor="#ffffff"
     bordercolor="#666666"
     borderopacity="1"
     objecttolerance="10"
     gridtolerance="10"
     guidetolerance="10"
     inkscape:pageopacity="0"
     inkscape:pageshadow="2"
     inkscape:window-width="1447"
     inkscape:window-height="755"
     id="namedview6"
     showgrid="false"
     inkscape:zoom="3.5036923"
     inkscape:cx="76.271186"
     inkscape:cy="36.016949"
     inkscape:window-x="0"
     inkscape:window-y="0"
     inkscape:window-maximized="0"
     inkscape:current-layer="svg2" />
  <path
     d="m 16.787842,54.433197 3.243761,-8.357576 -1.144145,-13.036469 c 0,-8.802583 6.4382,-15.93662 14.51579,-16.324052 0.05116,-1.385809 0.233046,-2.70836 0.538885,-3.960135 -5.114732,0.04107 -9.881819,2.135004 -13.471391,5.99631 -3.552717,3.8217 -5.491896,8.837786 -5.491896,14.213984 v 0.172722 l -0.0024,0.171989 1.81138,21.123227 z m 64.476057,-21.418615 -1.172749,13.376963 3.239911,8.347124 1.859969,-21.416414 0.01357,-0.184274 v -0.172722 c 0,-5.376198 -1.960998,-10.380732 -5.523617,-14.204633 -3.63211,-3.897611 -8.478591,-5.982008 -13.649797,-5.982008 h -0.106897 c 0.313173,1.100139 0.500931,2.560574 0.553737,3.942716 8.192555,0.252849 14.785875,7.402288 14.785875,16.293248 z m -31.320787,1.89169 c 6.960765,0 12.609065,-9.12254 12.609065,-17.365701 0,-8.2471953 -5.6483,-12.9020687 -12.609065,-12.9020687 -6.96425,0 -12.614016,4.4592319 -12.614016,12.9020687 1.83e-4,8.44027 5.649766,17.365701 12.614016,17.365701 z M 86.260365,73.185075 75.352849,45.082012 c -0.678052,-1.747572 -2.163241,-2.94379 -3.863873,-3.328289 -2.381618,-0.997093 -5.964956,-1.831732 -8.75381,-2.388036 -0.19069,0.516332 -0.395316,1.048066 -0.63533,1.609871 L 54.253825,70.943724 C 53.964671,67.322799 53.470709,53.22176 53.470709,52.276741 c 0,-1.025147 -3.155567,-4.28101 -3.155567,-4.28101 0,0 3.684,-3.058571 3.684,-4.279726 0,-1.221704 -2.372084,-3.778429 -3.821701,-3.778429 -1.449617,0 -3.845904,2.679757 -3.845904,3.778429 0,1.096839 3.567019,4.279726 3.567019,4.279726 0,0 -3.297668,3.192055 -3.297668,4.28101 0,0.771931 -0.458575,14.948512 -0.727192,18.626461 L 38.065823,41.038449 c 0,0 -0.224612,-0.671085 -0.36708,-1.699899 -2.978261,0.564739 -6.872755,1.427615 -9.372272,2.461563 -1.551013,0.408335 -2.900334,1.496373 -3.587188,3.061871 -0.247898,0.409619 -0.392016,0.786783 -0.479111,1.217671 l -10.52045,27.10542 c -0.881212,2.270688 -0.140084,4.850698 1.812113,6.307466 L 35.373781,94.28465 a 5.3983843,5.3983843 0 0 0 3.238811,1.076853 c 1.652776,0 3.284833,-0.753046 4.349585,-2.179743 1.79121,-2.400138 1.297431,-5.797368 -1.10289,-7.588579 l -16.518411,-12.326879 5.082278,-13.09496 -1.73052,13.09496 16.518411,12.326879 c 2.032508,1.516543 2.697359,4.184931 1.766091,6.424448 0.933101,0.02805 1.886922,0.04327 2.864213,0.04327 1.081803,0 2.139771,-0.01907 3.177202,-0.05317 -0.9254,-2.237501 -0.259082,-4.900388 1.770308,-6.414547 L 71.30727,73.266302 69.57675,60.171342 74.659211,73.266302 58.140617,85.593181 c -2.400321,1.791211 -2.893917,5.188441 -1.102889,7.588579 1.064751,1.426514 2.696808,2.179743 4.349768,2.179743 A 5.3983843,5.3983843 0 0 0 64.626123,94.28465 L 84.447886,79.492541 c 1.952564,-1.456768 2.693508,-4.036778 1.812479,-6.307466 z"
     id="path4"
     inkscape:connector-curvature="0"
     style="fill:#4d4d4d" />
</svg>
