<svg xmlns="http://www.w3.org/2000/svg" width="512" height="512" viewBox="0 0 512 512"><path fill="#4D4D4D" d="M304 48c0 26.523-28.656 48-64 48-17.531 0-33.375-5.297-44.938-13.852C185.531 90.57 171.656 96 156 96c-13.109 0-24.938-3.852-34.094-10.008C116.094 92.031 106.688 96 96 96c-17.688 0-32-10.742-32-24s14.313-24 32-24c3.125 0 6.063.438 8.906 1.063C109.188 30.281 130.375 16 156 16c10.969 0 21.125 2.641 29.516 7.109C196.75 9.297 216.844 0 240 0c35.344 0 64 21.477 64 48zM128 160v-32c0-8.836-7.156-16-16-16H48c-8.844 0-16 7.164-16 16v32h96zm352 298v12c0 5.523-4.469 10-10 10H26c-5.531 0-10-4.477-10-10v-12c0-5.523 4.469-10 10-10h6V176h96v80l103.281-78.883a5.44 5.44 0 0 1 5.703-.555 5.447 5.447 0 0 1 3.016 4.867V256l103.281-78.883a5.44 5.44 0 0 1 5.703-.555 5.447 5.447 0 0 1 3.016 4.867V256l103.281-78.883a5.44 5.44 0 0 1 5.703-.555 5.447 5.447 0 0 1 3.016 4.867V448h6c5.531 0 10 4.477 10 10zm-272-74h-48v32h48v-32zm0-64h-48v32h48v-32zm96 64h-48v32h48v-32zm0-64h-48v32h48v-32zm96 64h-48v32h48v-32zm0-64h-48v32h48v-32z"/></svg>