<svg xmlns="http://www.w3.org/2000/svg" height="100" viewBox="0 0 100 100" width="100"><path d="M90.292 55.396L78.086 33.472h2.429a2.541 2.541 0 0 0 2.543-2.543 2.541 2.541 0 0 0-2.543-2.543H57.63v-.159a2.385 2.385 0 0 0-2.384-2.383h-2.384l-.142-3.348a5.065 5.065 0 0 0 2.366-4.28A5.083 5.083 0 0 0 50 13.13a5.084 5.084 0 0 0-5.086 5.085c0 1.805.95 3.382 2.367 4.284l-.141 3.345h-2.384a2.385 2.385 0 0 0-2.384 2.383v.16H19.488a2.541 2.541 0 0 0-2.543 2.542 2.541 2.541 0 0 0 2.543 2.543h2.404L9.704 55.512a3.084 3.084 0 0 0-.308 2.2c.83 3.564 4.738 6.269 7.44 6.269H32.43c.633 0 5.687-2.481 7.164-5.821a3.104 3.104 0 0 0-.126-2.764l-12.21-21.924h15.115v.159a2.385 2.385 0 0 0 2.384 2.384h1.962l-1.803 43.227H39.67a2.385 2.385 0 0 0-2.384 2.384v.159h-1.986a3.1 3.1 0 0 0-3.1 3.099v.914c0 .593.482 1.072 1.074 1.072h33.453c.591 0 1.073-.479 1.073-1.072v-.914a3.1 3.1 0 0 0-3.1-3.1h-1.986v-.158a2.385 2.385 0 0 0-2.384-2.384h-5.244l-1.803-43.227h1.962a2.385 2.385 0 0 0 2.384-2.384v-.16h15.09L60.53 55.514a3.11 3.11 0 0 0-.308 2.2c.83 3.563 4.738 6.268 7.44 6.268h15.593c.635 0 5.686-2.481 7.166-5.821a3.111 3.111 0 0 0-.129-2.764zm-77.879.96l12.158-22 12.34 22H12.412zm50.829 0l12.157-22 12.336 22H63.242z" fill="#4d4d4d"/></svg>