<svg height="350" version="1" viewBox="0 0 350 350" width="350" xmlns="http://www.w3.org/2000/svg"><g fill="#4D4D4D"><path d="M275 267h-14v-54h-34.978l-50.338-25.168L125.348 213H91v54H75v13h200v-13zm-165 0h-8v-38h8v38zm19 0h-8v-38h8v38zm17 0h-9v-38h9v38zm17 0h-8v-38h8v38zm17 0h-8v-38h8v38zm17 0h-9v-38h9v38zm16 0h-9v-38h9v38zm19 0h-8v-38h8v38zm16 0h-8v-38h8v38zM59 289h232v13H59zm-11 22h254v13H48z"/><path d="M175.685 174.427L236.832 205H248v-27.44l-11 .022V168h-8v-10.289l-3.644-3.604s2.841-30.176-28.685-40.536c0 0 .328-9.908-10.672-13.059V82.044s-.128-5.78-11-6.258v-18.64c10.872 6.323 18-6.317 27 0v-21.07c-9-6.323-16.128 6.318-27 0v-1.053c0-.583-.338-1.056-1.5-1.056-1.161 0-1.5.473-1.5 1.056v40.914c-8 1.037-8 6.106-8 6.106v18.468c-11 3.15-10.777 13.059-10.777 13.059-31.525 10.36-28.721 40.536-28.721 40.536L121 157.711V168h-8v9.582l-11-.022V205h12.537l61.148-30.573z"/></g></svg>