<svg xmlns="http://www.w3.org/2000/svg" height="100" viewBox="0 0 100 100" width="100"><g fill="#4d4d4d"><path d="M71.084 56.803l-3.393-4.345-3.389 4.187a1.673 1.673 0 0 1-1.3.622h-4.105l-4.615 11.37a1.674 1.674 0 0 1-3.206-.387l-3.922-26.792L43.841 57a1.674 1.674 0 0 1-2.853.8l-5.413-5.725-2.717 4.555a1.673 1.673 0 0 1-1.437.817H16.364C22.422 65.86 32.79 77.097 50 88.057c17.21-10.96 27.58-22.197 33.637-30.61H72.403a1.675 1.675 0 0 1-1.32-.644z"/><path d="M92.847 35.534c0-13.029-10.56-23.59-23.59-23.59-7.954 0-14.984 3.94-19.256 9.972-4.273-6.032-11.303-9.973-19.258-9.973-13.029 0-23.59 10.562-23.59 23.59 0 3 .565 5.863 1.584 8.5.378.98 1.865 4.708 5.336 10.066H30.47l3.363-5.64a1.675 1.675 0 0 1 2.653-.291l4.745 5.017 4.592-21.54a1.674 1.674 0 0 1 3.293.106l4.38 29.922 2.722-6.71c.257-.63.87-1.044 1.55-1.044h4.433l4.21-5.204a1.674 1.674 0 0 1 1.3-.621h.014c.51.004.991.241 1.305.643l4.187 5.361h12.709c3.47-5.358 4.957-9.086 5.335-10.065a23.473 23.473 0 0 0 1.586-8.5z"/></g></svg>