<svg xmlns="http://www.w3.org/2000/svg" height="100" viewBox="0 0 100.00001 100" width="100"><g fill="#4d4d4d" font-weight="400" font-family="Sans"><path d="M15.038 61.92a1.116 1.116 0 0 0-1.106 1.103v16.38c0 .289.122.575.326.78.204.204.49.325.78.326h4.088a1.115 1.115 0 0 0 1.109-1.105V63.022c0-.29-.122-.579-.326-.783a1.115 1.115 0 0 0-.783-.32h-4.088zm17.726.99c-5.105.059-10.178 1.709-10.178 1.709-.442.142-.77.593-.769 1.057V76.64c.022.745.505 1.235 1.153 1.298.35.03.893.105 1.985.254a8.47 8.47 0 0 1 1.047.346c.55.218 1.25.527 2.042.89 1.585.725 3.54 1.681 5.516 2.632 1.977.951 3.972 1.893 5.654 2.626 1.682.734 2.886 1.277 3.979 1.36 1.658.129 4.493-.332 7.397-.793 2.905-.462 5.86-.962 6.646-1 2.333-.11 4.258-1.86 5.523-2.68 1.643-1.068 3.535-2.21 5.098-3.697h.003c.566-.538.997-1.234.985-2.152-.103-.758-.781-.565-.954-.88.228-.245.905-.87.954-1.345.162-1.41-1.28-2.115-2.45-2.21-2.169-.108-4.14 1.2-5.23 2.234-1.677 1.6-3.48 2.14-5.965 2.427-2.976.345-5.765.578-8.427-.264-.397-.125-1.31-.525-2.146-.879a27.096 27.096 0 0 0-1.194-.474c-.272-.1-.445-.199-.752-.24.907-.117 2.381-.329 3.745-.168 1.649.194 6.762.205 8.874.59a3.083 3.083 0 0 0 2.2-.429c.597-.385 1.009-.928 1.29-1.5.564-1.145.798-1.768-.017-2.89-.74-1.019-1.88-1.362-3.144-1.72-1.264-.358-2.688-.603-3.954-.803-2.619-.416-4.576-.323-6.505-.69-.696-.133-1.904-.83-3.567-1.617-1.663-.787-3.823-1.615-6.663-1.878a21.055 21.055 0 0 0-2.176-.079zm52.198-24.83a1.115 1.115 0 0 0 1.106-1.103v-16.38a1.12 1.12 0 0 0-.326-.78 1.119 1.119 0 0 0-.78-.326h-4.088a1.114 1.114 0 0 0-1.109 1.105v16.381c0 .29.122.579.326.783.205.205.494.32.783.32h4.088zm-17.726-.99c5.105-.059 10.178-1.709 10.178-1.709.442-.142.77-.594.769-1.057V23.36c-.022-.745-.506-1.235-1.154-1.298-.349-.03-.892-.105-1.984-.254a8.47 8.47 0 0 1-1.047-.347 43.98 43.98 0 0 1-2.042-.889c-1.585-.725-3.54-1.682-5.517-2.633-1.976-.95-3.971-1.892-5.653-2.626-1.682-.733-2.886-1.276-3.979-1.359-1.659-.129-4.493.332-7.397.793-2.905.461-5.86.961-6.646 1-2.334.109-4.258 1.86-5.523 2.68-1.643 1.067-3.535 2.21-5.098 3.697h-.003c-.566.538-.997 1.234-.985 2.152.102.758.781.565.954.879-.228.246-.905.871-.954 1.346-.162 1.41 1.28 2.115 2.45 2.21 2.169.108 4.14-1.2 5.229-2.234 1.678-1.6 3.48-2.14 5.966-2.427 2.976-.345 5.765-.578 8.427.264.397.125 1.31.525 2.146.879.418.176.832.341 1.194.474.272.099.445.198.752.24-.907.117-2.381.329-3.745.168-1.649-.195-6.762-.205-8.874-.59a3.083 3.083 0 0 0-2.2.429c-.597.385-1.009.928-1.29 1.5-.564 1.145-.798 1.768.016 2.89.74 1.019 1.881 1.362 3.145 1.72 1.264.358 2.688.603 3.954.803 2.619.416 4.576.323 6.505.69.696.133 1.904.83 3.567 1.617 1.663.787 3.823 1.615 6.663 1.878a21.06 21.06 0 0 0 2.176.079z" style="text-indent:0;text-align:start;line-height:normal;text-transform:none;block-progression:tb;-inkscape-font-specification:Sans" color="#000" overflow="visible"/><path d="M43.197 33.573a6.762 6.762 0 0 0-.54.799c-1.058 1.834-1.043 3.67-1.043 3.687l-.042 3.179c-.054.026-.115.045-.164.08-.228.161-.377.39-.47.624-.186.468-.207.983-.207 1.64 0 2.076 1.2 4.05 2.386 5.208.93 3.434 3.619 6.014 6.885 6.11 3.266-.096 5.955-2.676 6.885-6.11 1.186-1.158 2.38-3.132 2.38-5.209 0-.656-.02-1.171-.206-1.639a1.37 1.37 0 0 0-.47-.624c-.05-.035-.11-.054-.164-.08 0 0 .19-1.65-.042-3.151-.062-.4-.136-.766-.226-1.1-1.159-.557-2.301-1.16-3.531-1.554-3.776-.776-7.748-.598-11.431-1.86zm.3 18.612c-.475.183-6.233 2.407-7.828 3.48-1.665 1.119-2.688 2.385-3.574 4.307a16.04 16.04 0 0 0-.484 1.164c3.746-.163 7.503.409 10.858 2.142 1.91 1.228 4.147 1.677 6.392 1.798 2.999.317 6.102.526 8.9 1.72 1.03.373 1.97 1.077 2.582 1.981 3.164-.381 6.317-1.011 8.622-2.043a.657.657 0 0 0 .381-.582c0-2.035-.551-4.26-1.437-6.18-.886-1.922-1.914-3.188-3.579-4.307-1.588-1.068-7.291-3.274-7.814-3.475-1.337 1.986-3.447 3.454-5.857 3.715-2.867.3-5.605-1.402-7.162-3.72z" style="text-indent:0;text-align:start;line-height:normal;text-transform:none;block-progression:tb;-inkscape-font-specification:Sans" color="#2d2d2d" overflow="visible"/></g></svg>