<svg xmlns="http://www.w3.org/2000/svg" height="100" viewBox="0 0 100 99.999998" width="100"><g fill="#4d4d4d"><path d="M21.79 16.55zM26.42 27.458h-9.254c-1.923 0-3.578.152-3.69.338l-.205.34c-.1.168-.181.456-.181.65v63.659h17.406V28.783c0-.192-.083-.481-.182-.649l-.203-.34c-.12-.184-1.768-.336-3.69-.336zm-1.495 53.671H18.66v-6.27h6.266v6.27zm0-13.927H18.66v-6.268h6.266v6.268zm0-13.924H18.66V47.01h6.266v6.268zm0-13.927H18.66v-6.265h6.266v6.265z"/></g><g fill="#4d4d4d"><path d="M78.28 16.55zM82.907 27.458H73.65c-1.921 0-3.573.152-3.686.338l-.206.34c-.1.168-.182.456-.182.65v63.659h17.408V28.783c0-.192-.084-.481-.181-.649l-.205-.34c-.116-.184-1.767-.336-3.69-.336zm-1.493 53.671h-6.267v-6.27h6.267v6.27zm0-13.927h-6.267v-6.268h6.267v6.268zm0-13.924h-6.267V47.01h6.267v6.268zm0-13.927h-6.267v-6.265h6.267v6.265z"/></g><path d="M67.167 10.503l-.44-.462c-.239-.25-1.992-.46-3.916-.46H37.19c-1.921 0-3.678.206-3.919.46l-.437.462c-.13.139-.241.406-.241.6V90.7h34.813V11.103a.991.991 0 0 0-.24-.6zM44.294 79.386h-6.268v-6.269h6.268v6.27zm0-13.925h-6.268v-6.266h6.268v6.266zm0-13.925h-6.268V45.27h6.268v6.266zm0-13.925h-6.268v-6.267h6.268v6.267zm0-13.926h-6.268v-6.267h6.268v6.267zm9.19 63.71a1.39 1.39 0 0 1-1.391 1.393h-4.18a1.395 1.395 0 0 1-1.393-1.393V82.52c0-.767.623-1.391 1.394-1.391h4.179c.765 0 1.39.623 1.39 1.391v4.875zm8.215-8.009h-6.267v-6.269h6.267v6.27zm0-13.925h-6.267v-6.266h6.267v6.266zm0-13.925h-6.267V45.27h6.267v6.266zm0-13.925h-6.267v-6.267h6.267v6.267zm0-13.926h-6.267v-6.267h6.267v6.267z" fill="#4d4d4d"/><path d="M88.118 94.495H11.88c-.939 0-1.705-.879-1.705-1.964v-2.615c0-1.085.763-1.963 1.705-1.963h76.237c.942 0 1.706.877 1.706 1.963v2.615c0 1.085-.765 1.964-1.706 1.964z" fill="#4d4d4d"/><ellipse ry="9.208" rx="37.751" cy="11.813" cx="86.341" transform="translate(10.176 5.505) scale(.4603)" fill="#4d4d4d"/><ellipse ry="5.525" rx="18.602" cy="49.721" cx="25.047" transform="translate(10.176 5.505) scale(.4603)" fill="#4d4d4d"/><ellipse ry="5.525" rx="18.605" cy="49.534" cx="147.958" transform="translate(10.176 5.505) scale(.4603)" fill="#4d4d4d"/><path d="M58.11 10.588H42.004c-1.872 0-3.393-1.138-3.393-2.54 0-1.404 1.517-2.543 3.393-2.543H58.11c1.872 0 3.39 1.139 3.39 2.543 0 1.402-1.518 2.54-3.39 2.54z" fill="#4d4d4d"/></svg>