<svg xmlns="http://www.w3.org/2000/svg" height="100" width="100"><g fill="#4d4d4d"><path d="M62.322 41.224c-.307.755-.605 1.515-1.023 2.21-2.431 4.253-7.186 7.466-12.235 7.026-5.22-.514-9.5-4.466-11.42-9.219a1 1 0 0 0-.338.187l-9.34 7.905a1 1 0 0 0-.078 1.46l1.846 1.912v.004c1.053 1.097 1.716 1.92 1.963 3.073.247 1.154.09 2.792-.906 5.496-1.815 4.93-3.462 8.649-3.462 12.837 0 7.438 4.925 13.06 13.062 15.13 5.584 1.42 6.104 1.86 8.976 4.187a1 1 0 0 0 1.261 0c2.873-2.326 3.392-2.766 8.976-4.187 8.138-2.07 13.067-7.692 13.067-15.13 0-4.187-1.647-7.905-3.462-12.837-.996-2.704-1.153-4.342-.906-5.496.247-1.152.91-1.976 1.963-3.073v-.004l1.842-1.911a1 1 0 0 0-.074-1.465c-7.665-6.487-8.468-7.145-9.31-7.888a1 1 0 0 0-.402-.217zM50.004 56.12c.26 0 .507.173.607.412l2.553 6.124 6.61.529c.258.02.5.208.58.455a.676.676 0 0 1-.2.706l-5.04 4.321 1.543 6.45a.678.678 0 0 1-.256.689.683.683 0 0 1-.736.03l-5.66-3.459-5.665 3.459a.67.67 0 0 1-.875-.165.68.68 0 0 1-.113-.555l1.538-6.449-5.036-4.32a.677.677 0 0 1-.2-.707.673.673 0 0 1 .573-.455l6.613-.529 2.553-6.124c.1-.24.352-.412.611-.412z" style="text-indent:0;text-align:start;line-height:normal;text-transform:none;block-progression:tb;-inkscape-font-specification:Sans" font-weight="400" color="#000" overflow="visible" font-family="Sans"/><path d="M63.975 23.523a39.965 39.965 0 0 1-3.064 1.107c-8.057 2.772-17.03 2.111-24.867-1.078-.02 1.315-.038 2.637-.038 2.637-.09.044-.19.071-.272.13-.378.268-.623.656-.777 1.045-.308.776-.343 1.622-.343 2.712 0 3.45 1.983 6.73 3.954 8.652 1.544 5.702 6.02 9.984 11.443 10.143 5.424-.16 9.895-4.44 11.44-10.143 1.97-1.923 3.953-5.203 3.953-8.652 0-1.09-.035-1.936-.343-2.712-.153-.389-.398-.777-.777-1.045-.082-.059-.183-.086-.272-.13l-.037-2.666z" style="text-indent:0;text-align:start;line-height:normal;text-transform:none;block-progression:tb;-inkscape-font-specification:Sans" font-weight="400" color="#2d2d2d" overflow="visible" font-family="Sans"/><path d="M34.134 20.92c2.27 1.128 8.561 3.874 15.874 3.874 7.311 0 13.603-2.745 15.872-3.874-2.27-1.124-8.56-3.872-15.872-3.872-7.313 0-13.605 2.748-15.874 3.872z"/><path d="M33.45 20.041c2.161-1.107 8.691-4.082 16.558-4.082 7.865 0 14.395 2.975 16.558 4.082.198-.349.343-.715.414-1.109 1.01-5.731-8.43-12.588-16.972-12.588-8.543 0-17.984 6.857-16.971 12.588.068.394.213.76.414 1.11zM50.023 6.965a3.635 3.635 0 1 1-.002 7.27 3.635 3.635 0 0 1 .002-7.27z"/></g></svg>