<svg xmlns="http://www.w3.org/2000/svg" viewBox="0 0 100 100"><g stroke="#fff"><path d="M65.883 27.57l.108.108h.214l.43-.108h.107l.107.108.644.322v.107l2.683 1.717h.107l.215-.107h.322l.215-.322v-.108h-.108v-.107l-1.395-.966L67.6 26.82h-.107v-.107l.107-.108v-.107h.215l.107.107.537.108h.107l.108.107h.107l.107.107h.751l1.932-.214h.322-.215v.107l.215.215.107-.108v-.214h.537v-.108h.107v.108h.215l.966.751h.107v.107h.107v.215h.108V28h.536v.107l.966.644h.108v.107h.107v.107h.107v.322-.214h-.107v-.108l-.107-.107h-.108l-1.073-.751V28h-.537v-.43h-.107v-.107h-.107l-.537-.43-.429-.214h-.107v-.107H72v.214l-.107.108.537.322.429.322h.107v.214h-.107l-2.146.215v.107l.429.322.215.107.107.108.644-.108h.429l1.288-.107.214-.107.108.107.536.322.322.215.43.322.644.429v.215l-2.254.214-.107.108h-.108l1.073.75-.429.752-.43-.322h-.321l-1.18.107-1.288-.858h-.108l-.107-.107h-1.288v-.108h-.537l-.214.108h-.644l-.215.322-.429.643-.107.322h.107v.108h.107l.108.107h.107v.107h.107l.108.108h.107l.107.107h.108v.107h.107v.108h.107l.108.107h.107l.107.107v.108l.215.107.214.215.108.107.107.214.107.108.108.107v.107l.107.108.107.214.108.215.107.107v.108l.107.322.215.107.107.107.108.108h-.108l-.429.644-.43.429-.429.536-.429.43.215.644v.858h.107v1.288l.107.537v.536l-.429.107h-1.395l-.107.108H63.95l-.321-.108h-.644l-.108-.214h-.107l-.215-.107-.107-.108h-.107v-.107l-.322-.215h-1.825l-.214.108h-.43l-.644-.108h-1.073l-.429-.107h-.215l.215-.537.215-.536.214-.537v-.322l.43-.43.214-.428.215-.215.107-.107.43-.644.429-.644.214-.43.215-.214v-.107l.322-.537.107-.107v-.108l.215-.322.215-.322.322-.536v-.215h1.824l.215.215h.107v.107l.215.215.321-.43.215-.429.537-1.073.429-.751.107-.215.108-.107h-.108v-.107l-.429-.322-.322-.215-.215-.107-.322-.215-.321-.215-.215-.214-.215-.215-.214-.322-.108-.107-.107-.108.107-.107v-.107l.108-.107.214-.215.43-.644v-.107h.107v-.108l.214-.214v-.108l.108-.107v-.322l-.108-.107-.107-.215.322.215v.107h.107l.108.107.214.108 1.288.858" stroke-width=".10732"/><path d="M58.478 48.82l.108.643v2.147l.107.536v.644l.214.537h-.214l.107.536v.537l.107.751v1.288l.108.644v.644l.107.644.215.644v.107l.107.322.107.107-.107.215v.322l-.107.322v.215l-.108.322-.214.107H58.8l-.43.107-.536.108-.536.107h-.108l-.429.107h-.107l-.43.107h-.107l-.214.108h-.215l-.537.107-.536.107-.537.108-.107-.537-.108-.536-.107-.43v-.214l-.107-.215v-.322l-.107-.43-.108-.536-.107-.107v-.43l-.107-.214v-.322l-.108-.107v-.537l-.107-.107v-.43l-.107-.107v-.43l-.108-.106v-.537l-.107-.107v-.43l-.107-.107v-.43l-.108-.536v-.107l-.214-.751v-.43l-.108-.322v-.536l-.107-.108v-.536l-.107-.107v-.43l-.215-.966v-.107l-.322.107v-.644l-.107-.429v-1.502l-.107-.43v-1.18l-.108-.537-.322-.536-.322-.537-.429-.644h.107l.322-.214v-.108l.215-.107.215-.43.107-.107.322-.429v-.107l.214-.215.108-.107h.107l.322-.215.215-.107h.107l.322-.215h.215l.644-.107h3.863l.43.107h1.072l-.107.644v.537l-.214.644v.429l-.108.43-.107.428v.108l-.107.43-.108.428-.107.644v.322l-.322.108.107.322v.965l.215.43.215.429v.107l.107.108v.322l.107.321" stroke-width=".10732"/><path d="M51.18 45.278v1.18l.108.43v1.502l.107.43v.643l.322-.107v.107l.215.966v.43l.107.107v.536l.107.108v.536l.108.322v.43l.214.75v.108l.108.537v.429l.107.107v.43l.107.107h-.322l-.322.107h-.107l-.537.108-.536.107-.537.107h-.107l-.537.108h-.429l-.322.107-.644.107-.536.108-.43.107-.966.107-.429.107-.644.108-.644.107-.214.107h-.43l-.322.108h-.321l-.108.107h-.536l-.43.107-.107-.429-.107-.107-.215-.537v-.107l-.107-.215-.215-.536-.215-.537v-.107l-.214-.537-.107-.215-.108-.321-.214-.537-.215-.537-.215-.644-.322-.643v-.108l-.214-.536-.108-.43-.214-.322-.215-.644-.107-.429-.108-.107-.107-.43-.215-.536-.321-.537-.215-.644-.215-.536-.214-.537h.107l.107-.107.215-.215h.107l.43-.429.321-.215.108-.107.214-.215.215-.107h.107l.644.215.322.107h.108l.214.107.43.108.429.107.214.107.215.108h.215l.107.107h.215l.214.107.322.108h.108l.858.322h.322l.215-.108.214-.107.43-.107.536-.108.537-.214h.107l.43-.215h.107l.322-.107.322-.215.214-.107.322-.215h.108v-.107h.107l.536-.322.108-.107h.107l.43-.322.214-.108.43.644.321.537.322.536.108.537" stroke-width=".10732"/><path d="M42.273 56.761l.107.43.43-.108h.536l.108-.107h.321l.322-.108h.43l.214-.107.644-.107.644-.108.43-.107.965-.107.43-.107.536-.108.644-.107.322-.107h.43l.536-.108h.107l.537-.107.536-.107.537-.108h.107l.322-.107h.322v.537l.108.107v.43l.107.106v.43l.107.107v.537l.108.107v.322l.107.215v.429l.107.107.108.537.107.429v.322l.107.215v.214l.107.43.108.536.107.537-.536.107h-.108v.107h-.43l-.321.108h-.215l-.107.107h-.43l-.214.107h-.322l-.107.108h-.43l-.107.107h-.214l-.108.107v1.18l.108.537h-.215l-.43.215-.536.322.107.107v.108l.322.322.322.322h.108l.107.107.215.215.536.536h.108v.107l-.215.215-.43.43-.429.429-.214.214-.322.322-.322.322-.322.322-.537.43-.214.107-.108.214-.214-.214-.108-.108-.322-.322-.322-.322-.536-.429v-.107l-.43-.322-.107-.107v-.108h-.107v-.214h-.107V67.6h-.43l-.107-.107h-.107l-1.18.107h-1.718l-.43-.107h-.321l-.43-.107v.644l-.107.107-.107.107v.108h-.107l-.644.643v.108l-.215.214-.215.108-.107.214-.107.108-.108.107-.107.107-.215.215-.214.215h-.108v.107l-.214-.215-.107-.107v-.107h-.108l-.107-.108-.107-.214h-.108l-.107-.215-.107-.107-.322-.215-.108-.107-.107-.108-.215-.214-.214-.107-.108-.215-.107-.107h-.107l-.215-.322h-.107v-.108l-.107-.107h-.108v-.107l.108-.108.214-.322.215-.214v-.108h.107v-.107l.107-.215.43-.536.214-.322.215-.322.107-.43h-.107l-.107-.107-.215-.214-.322-.215v-.107H36.8l-.108-.215h-.107l-.43-.536h-.106l-.43-.43-.536-.536v-.108l-.322-.644v-.107l-.215-.43v-.106l-.107-.43-.215-.536-.215-.537-.214-.644-.215-.644-.322-.644-.214-.75-.108-.108-.107-.322-.107-.537-.215-.536-.215-.644-.214-.43-.215-.536v-.108l-.215-.429-.107-.43.43-.214.321-.214.108-.108.107-.107.322-.215.215-.107.536-.322.107-.107.43-.215v-.107l.429-.215.322-.214.107-.108h.108l.214-.107v-.107l.322-.108.43-.214.107-.108.43-.214.428-.215h.108l.107-.107.322-.108.107-.107.43-.215.536-.214h.107l.108-.108.322-.107.107.43.215.643.214.322.108.43.214.536v.108l.322.643.215.644.215.537.214.537.108.321.107.215.214.537v.107l.215.537.215.536.107.215v.107l.215.537.107.107" stroke-width=".10732"/><path d="M14.263 58.37h.858l.215.108h.751l.322.108h.107l.215.107.322.214.107.108h.215l.107.107.108.107.214.108.322.107.108.107h.107l.214.108.322.107.215.107h.322l.215.108.107.107.107.215h.108l-1.61.214-.43.108.108.322.107.536.108.43v.107l.214.214.537.43.429.429.537.537.429.429h.107l.215.214.215.215.214.215.215.214.43-.214.428-.322.43-.215.429-.215.43-.321.214.214.107.107.322.43h.215v-.108h.107l.43-.214.536-.322.322-.215.322-.214h.107l.107-.108.322-.107v-.107l.322-.215.322-.107.108-.108.322-.107.429-.215.215-.214h.107l.107-.108.107-.107.322-.107.43-.215.429-.322.107-.107.322-.107.215-.108.107-.107.644-.322.107.107.215.322.43.322.214.108v.107l.322-.215.43-.322.321-.214.537-.215.43-.107.214.536.107.43v.107l.215.43v.106l.322.644v.108l.536.536.43.43h.107l.43.536h.106l.108.215h.107v.107l.322.215.215.214.107.108h.107l-.107.429-.215.322-.214.322-.43.536-.107.215v.107h-.107v.108l-.215.214-.214.322-.108.108v.107h.108l.107.107v.108h.107l.215.322h.107l.107.107.108.215.214.107.215.214.107.108.108.107.322.215.107.107.107.215h.108l.107.214.107.108h.108v.107l.107.107.214.215-.107.107-.214.215-.108.215h-.107l-.107.107-.859.858-.215.108-.107-.108v-.107H36.8v-.107l-.215-.215h-.107l-.108-.107-.107-.107-.107-.108-.107-.107-.108-.107-.214-.215-.752.751v.107l-.107-.107-.107-.107h-.108l-.107-.107v-.108l-.107.215-.215.644-.322.751-.215.644-.214-.215-.215-.214-.214-.215-.108-.107-.214-.215-.108-.107-.214-.215h-.108l-.429-.537-.322-.214-.107-.107-.108-.108-.107-.107-.107-.107-.215.107-.107.107-.107.108-.108.107h-.107l-.107.107-.108.107-.214.215-.43.215-.322.322-.429.322-.322.322h-.107l-.107.107-.108.107h-.107l-.43.215-.321.107-.43.108-.107.107-.43.536-.321.43h-.107l-.215.214v.108l-.107.107-.108.107-.107.108-.107.107-.322.537h-.108l-.214.429-.644.644v.107l-.537.537-.107.107-.215.107-.214.215-.108.107-.107.108h-.107l-.215.214-.215.108-.107.107h-.107l-.43.322-.107.107-.215.107-2.36-2.146-.215-.215-.108-.107-1.287-1.18h-.108l-.429-.43-1.932-1.824-.107-.107h-.107l-.108-.215-.429-.43-1.395-1.18-.644-.644-.43-.429h-.107l-1.18-1.18-.107-.108h-.108l-.214-5.58-.108-1.932v-.108l-.107-1.502v-.751h1.395v-.108h.537l.536-.107h.108l.322-.107h.107l.322-.108.536-.107h.108v-.322l.107-.107h.107v-.107.107h.43" stroke-width=".10732"/><path d="M27.141 51.932l.43.429.429.43.429.429h.107l.322.429.322.214.322.322.322-.214.43-.215.429-.214.214-.108.215-.107.214-.215h.108l.107-.107.107.43.215.428v.108l.215.536.214.43.215.644.215.536.107.537.107.322.108.107.214.751.322.644.215.644.214.644.215.537-.43.107-.536.215-.322.214-.429.322-.322.215v-.107l-.215-.108-.429-.322-.215-.322-.107-.107-.644.322-.107.107-.215.108-.322.107-.107.107-.43.322-.429.215-.322.107-.107.107-.107.108h-.107l-.215.214-.43.215-.321.107-.108.108-.322.107-.322.215v.107l-.322.107-.107.108h-.107l-.322.214-.322.215-.537.322-.429.214h-.107v.108h-.215l-.322-.43-.107-.107-.215-.214-.43.321-.428.215-.43.215-.429.322-.43.214-.214-.214-.214-.215-.215-.215-.215-.214h-.107l-.43-.43-.536-.536-.43-.43-.536-.429-.214-.214v-.108l-.108-.429-.107-.536-.107-.322.429-.108 1.61-.214h-.108l-.107-.215-.107-.107-.215-.108h-.322l-.215-.107-.322-.107-.214-.108h-.107l-.108-.107-.322-.107-.214-.108-.108-.107-.107-.107h-.215l-.107-.108-.322-.214-.215-.107h-.107l-.322-.108h-.751l-.215-.107h-1.288v-.107.107h-.107l-.107.107v.322h-.108l-.536.107-.322.108h-.107l-.322.107h-.108l-.536.107h-.537v.108H9.648v-.751l-.215-2.898-.322-6.117.215-.537.644-1.824h.107l.108.214h.107l.107.108.108.107.214.215.215.107.107.107.215.215.214.215.108.107.107.107.107.107v-.107l.43.322v.107l.429.43.43.429.428.322.108.107.214.215.108.107.214.215h.108l.107.215.107.107h.108l.107.107.215.215.322.322.107-.108.107-.107.108-.215.214-.107.215-.322h.107l.215-.322.322-.322.214-.214.215-.215.215-.107.107-.108.215-.214h.107l.107-.108h.108v-.107h.107v-.107h.107l.108-.108.214-.107.107-.107.108-.108h.107v-.107h.107l.108-.107h.107v-.107l.215-.108.644-.43.107-.106.215-.108.107-.107.107-.107h.108v-.108h.107l.107-.107.108-.107h.107l.214-.215.108-.107.322-.215.536-.322.322.43.43.536v.107h.107v.108l.215.322.107.107.322.43v.107l.43.429.321.322.43.429.429.43.429.536.43.322v.107l.536.43.429.429" stroke-width=".10732"/><path d="M22.956 39.805l.536.322v-.108h.107l.859.108.537.107h.966l.429.107h1.18v.108h.966l.644.107.107.107h.108l.322.108.536.322.43.214.429.215h.107l.322.107.537.107-.108.108-.322.214.215.43.215.429.322.322v.107l.322.43.322.643.429-.322.214-.107.322-.322h.108l.429-.536h.107l.43-.322.107-.215h.107l.43.215h.107l.536.214h.108l.214.108h.108l.322.107.536.107.322.108.322.107.43.107.107.107h.107l.43.108.214.107-.215.107-.214.215-.108.107-.322.215-.429.43h-.107l-.215.214-.107.107h-.107l.214.537.215.536.215.644.321.537.215.537.107.429.108.107-.322.107-.108.108h-.107l-.536.214-.43.215-.107.107-.322.108-.107.107h-.108l-.429.215-.43.214-.106.108-.43.214-.322.108v.107l-.214.107h-.108l-.107.108-.322.214-.43.215v.107l-.429.215-.107.107-.536.322-.215.107-.322.215-.107.107-.108.108-.322.214-.429.215-.107.107h-.108l-.214.215-.215.107-.214.108-.43.214-.429.215-.322.214-.322-.322-.322-.214-.322-.43h-.107l-.43-.429-.429-.429-.429-.43-.43-.429-.536-.429v-.107l-.43-.322-.428-.537-.43-.429-.429-.43-.322-.321-.43-.43v-.107l-.321-.43-.107-.106-.215-.322v-.108h-.107v-.107l-.43-.537-.322-.429-.536.322-.322.215-.108.107-.214.215h-.107l-.108.107-.107.107h-.107v.108h-.108l-.107.107-.107.107-.215.108-.107.107-.644.43-.215.107v.107h-.107l-.108.107h-.107v.107h-.107l-.108.108-.107.107-.214.107-.108.108h-.107v.107h-.107v.107h-.108l-.107.108h-.107l-.215.214-.107.108-.215.107-.215.215-.214.214-.322.322-.215.322h-.107l-.215.322-.214.107-.108.215-.107.107-.107.108-.322-.322-.215-.215-.107-.107h-.108l-.107-.107-.107-.215h-.108l-.214-.215-.108-.107-.214-.215-.108-.107-.429-.322-.43-.43-.428-.429v-.107l-.43-.322v.107l-.107-.107-.107-.107-.108-.107-.214-.215-.215-.215-.107-.107-.215-.107-.214-.215-.108-.107-.107-.108h-.107l-.108-.214H9.97l.751-1.825.644-1.717 1.073-2.897.108-.108 3.22-8.37v-.108h.214l.107.107.107.108.322.322v.107l.215.215v.107l.322.43.107.106.215.322.215.322.107.108.215.214.322.43.321.429.322.43.215.428.322.43.322.322.322.429v.107l.215.215.322.43.214.321.215.215h-.215l.108.107.107.107h.107l.43.108.429.214.214.108.108.107h.107l.537.215" stroke-width=".10732"/><path d="M20.917 38.624h-.108l-.214-.322-.322-.43-.215-.214v-.107l-.322-.43-.322-.321-.322-.43-.215-.429-.322-.43-.321-.428-.322-.43-.215-.214-.107-.108-.215-.322-.215-.322-.107-.107-.322-.43v-.106l-.215-.215v-.107l-.322-.322-.107-.108-.107-.107h-.215l.108-.107.643-1.717.43-1.18.75-1.718.216-.751.107-.108.107-.429v-.107l.215-.43 1.288-3.326.214-.537.322-.966 1.288-3.112.215-.644.322-.751v-.215l1.288-.644.858-.536.215-.108h.107l.215-.107.322-.215.107-.107h.107l.215-.107.751-.43 1.18-.643.215-.108.215-.107h.107l.215-.107.966-.537.966-.537.214-.107.537-.322h.107l.215-.215.214-.107h.108l.214-.107.644-.322.108.107v.108l.107.107.215.322.214.43.215.428.215.322.214.322.322.43.215.429.214.322.215.43.215.321.214.322.108.215.107.107v.107l.107.108.108.107.107.107-.107.108-.322.321-.43.215-.322.215-.322.214-.429.215-.322.322-.322.215.322.536.215.43.107.107.107.214.322.43.108.214.214.43.43.429.107.215.215.322.107.107.215.214.322.43.214.429-.214.215.322.107.107.107-.43.43-.429.322-.429.321-.322.322h-.107l-.215.215-.537.322-.214.215-.107.107.214.322.322.537.322.429.322.536.322.43.322.429.322.537-.43.214-.321.322-.322.215-.43.322h-.107l-.322.214v.108l-.322.107v.107h-.107l-.322.215-.107.107h-.108l-.214.215-.644.43h-.108l-.107.214-.215.107-.214.108-.107.107-.108.107-.43.215v.107h-.106l-.215.107v.108l-.43.322-.429.214-.429.322-.215.215-.214.107-.215.215h-.107l-.43.322-.429.322-.322.214h-.107l-.215.215-.322.215-.214.214-.215.215-.214.107-.322.215-.43.322-.107.107-.107.108-.215.214-.215.108-.107.107-.215.107-.429.322-.43.43-.536.321-.644.43-.429.322-.107.107-.43.43m31.874-21.25l.215-.107.322.214.215.108h.107l.107.107.322.107h.107l.215.108v-.108l.107.108h.108l.429.214h.215l.107.108h.322v.107h.322l.107.107h.322v.107h.322v.108h.215l.107.107h.215l.107.107h.107l.108.108h.107l.107.107h.108v.107h.214v.108h.108l.107.107h.107v.107h.108v.108h.107l.107.107h.107v.107h.108l.107.108.107.107h.215v-.107l.215-.215h.107v-.107h.107v.107h.108v.215l-.108.214-.107.108h-.107v.214h.107v.108h.107v.107h.108v.107h.107v.108l.107.107.108.107v.107h.107v.108h.107v.107h.108v.215h.107v.107h.107v.107h.108v.215h.107v.107h.107v.108l.108.107v.107h.107v.108l.107.107v.107h.107v.108l.108.107v.107h.107v.108h.107l.108.107.322-.215v-.107h.107v-.107.107l.322-.215.107-.107.215-.107.43-.322.214-.215h.107l-.214.215-.644.429-.108.107-.322.215-.107.107h-.107l-.322.215v.214l.107.108.107.214.322-.107h.108v-.107h.107v-.215h.107v-.107h.322v-.107h.43v.107h.321l.108.107h.107l.107.107.108.108h.107v.214h.107v.108h.108v.322h.107v.322h-.107v.214h-.108v.108h-.107v.107l-.107.107v.108h-.108v.107h-.107v.107l-.107.108v.107h-.108v.107h-.107v.215h.107l.108-.215.107-.107.107-.107.108-.108.107-.107v-.107h.107v-.108l.108-.107v-.107h.107l.107-.108v-.107h.215v.107h.215v.108h.107v.107l.107.107v.108h.108v.214l.107.108.107.107v.322h.215l.322.536.43.966v.108l-.108-.108h-.108l-.429.108h-.214l-.108-.108-1.288-.858-.214-.108-.108-.107h-.107v-.107l-.322-.215.107.215.108.107v.322l-.108.107v.108l-.214.214v.108h-.107v.107l-.43.644-.214.215-.108.107v.107l-.107.107.107.108.108.107.214.322.215.215.215.214.321.215.322.215.215.107.322.215.43.322v.107h.107l-.108.107-.107.215-.43.751-.536 1.073-.215.43-.321.429-.215-.215v-.107h-.107l-.215-.215h-1.824v.215l-.322.536-.215.322-.215.322v.108l-.107.107-.322.537v.107l-.215.215-.214.429-.43.644-.429.644-.107.107-.215.215-.214.429-.43.43v.321l-.214.537-.215.536-.215.537h-3.005l-.107-.107-.536-.215-.537-.215v-.107l-.322-.107v-.108l-.537-.322-.429-.322-.322-.214-.107-.108-.215-.107-.214-.214-.43-.43-.429-.322h-.107l-.215-.214-.107-.108-.43-.322-.214-.214-.108-.108-.429-.322-.322-.214-.107-.107-.107-.108-.322-.322-.322-.214-.43-.322-.107-.108-.43-.322-.428-.322-.537-.429v-.107l.107-.644.322-.43.108-.214.322-.43.107-.107.322-.429.43-.43.214-.321-.108-.107-.214-.215-.43-.537-.321-.214v-.108l-.108-.107-.322-.215-.107-.107.107-.215.215-.214.322-.322.322-.43.322-.429-.43-.322-.107-.107-.214-.107-.108-.108-.322-.107-.107-.107-.107-.108-.322-.107-.322-.215-.322-.214-.108-.107h-.107l-.43-.322-.214-.108-.214-.107.321-.322.215-.322.215-.107.322-.322.214-.108.215-.107.322-.322.43-.215.429-.321.321-.322.108-.215.107-.107v-.108h.322l.43.108h.429l.322.107h.965l.215-.215v-.214h-.215v.107h-.75l-.215-.107h-.215l-.107-.108h-.108l-.107-.107h-.107l-.108-.107h-.107v-.108l-.107-.107-.108-.107h-.107v-.108l-.107-.107v-.107h-.108v-.322h-.107v-.43l.107-.107v-.107l.108-.107.107-.108.107-.107.108-.107.107-.108h.107l.215-.107.107-.107h.215l.107-.108h.108l.107-.107.107-.107.108-.108.107-.107.107-.107.107-.108.108-.107h.107v-.107h.215l.429-.322-.215-.215v-.107l.108-.107.429-.322.43-.322.107-.108h.107l.107-.107.215-.107.107-.108h.644l.215.108.107.107.43.215.214.107h.107m6.117 23.288l.644.108h.43l.214-.108h1.825l.322.215v.107h.107l.107.108.215.107h.107l.108.214h.644l.321.108h2.898v.644l.107.536v.108l.108.429v1.18l.107.108v1.824l.107.537v2.36l.108.108v.322l-.108.537v.644l.108.536v2.468l.107.108v1.502h-.43l-.321.108-.537.107-.43.107-.536.108h-.107l-.644.214h-.537l-.429.108h-.214l-.43.107h-.536l-.752.107h-.107l-.322.107h-.107l-.644.108-.43.107h-.107l-.107.107h-.322l-.107.108-.322.107-.108-.644v-1.288l-.107-.75v-.538l-.107-.536h.214l-.214-.537v-.644l-.107-.536v-2.147l-.108-.644-.107-.321v-.322l-.107-.108v-.107l-.215-.43-.215-.429v-.965l-.107-.322.322-.108v-.322l.107-.644.108-.429.107-.43v-.107l.107-.429.108-.43v-.428l.214-.644v-.537l.107-.644" stroke-width=".10732"/><path d="M53.005 40.02l.537.214.536.215.107.107h-.643l-.644.107h-.215l-.322.215h-.107l-.215.107-.322.215h-.107l-.108.107-.214.215v.107l-.322.43-.107.107-.215.429-.215.107v.108l-.322.214H50l-.215.108-.429.322h-.107l-.108.107-.536.322h-.107v.107h-.108l-.322.215-.214.107-.322.215-.322.107h-.108l-.429.215h-.107l-.537.214-.536.108-.43.107-.214.107-.215.108h-.322l-.858-.322h-.108l-.322-.108-.214-.107h-.215l-.107-.107h-.215l-.215-.108-.214-.107-.43-.107-.429-.108-.214-.107h-.108l-.322-.107-.644-.215h-.107l-.215-.107-.429-.108h-.107l-.108-.107-.429-.107-.322-.107-.322-.108-.536-.107-.322-.107h-.108l-.214-.108h-.108l-.536-.214h-.107l-.43-.215h-.107l-.107.215-.43.322h-.107l-.43.536h-.107l-.322.322-.214.107-.43.322-.321-.644-.322-.429v-.107l-.322-.322-.215-.43-.215-.429.322-.214.108-.108-.537-.107-.322-.107h-.107l-.43-.215-.429-.214-.536-.322-.322-.108h-.108l-.107-.107-.644-.107h-.966v-.108h-1.18l-.43-.107h-.965l-.537-.107-.859-.108h-.107v.108l-.536-.322-.537-.215h-.107l-.108-.107-.214-.108-.43-.214-.429-.108h-.107l-.107-.107-.108-.107h.215l-.215-.215h.108l.429-.43.107-.106.43-.322.643-.43.537-.322.43-.429.428-.322.215-.107.107-.107.215-.108.215-.214.107-.108.107-.107.43-.322.322-.215.214-.107.215-.215.214-.214.322-.215.215-.215h.107l.322-.214.43-.322.429-.322h.107l.215-.215.214-.107.215-.215.43-.322.429-.214.429-.322v-.108l.215-.107h.107v-.107l.43-.215.107-.107.107-.107.214-.108.215-.107.107-.215h.108l.644-.429.214-.215h.108l.107-.107.322-.215h.107v-.107l.322-.107v-.108l.322-.214h.107l.43-.322.322-.215.322-.322.429-.214.322-.215.536.43.43.321.751.537.322.429.107.107.215.322.43.537h.106l.108.215h.644l.322.107h.322l.429.215.322.107.215.107.536.215h.215l.322.214h.107l.322.108h.107l.108.107.214.107.215.108h.107l.108.107.214.107h.107l.108.108.43.214.321.215h.215l.429.322h.107l-.107.644v.107l.537.43.429.321.43.322.106.108.43.322.322.214.322.322.107.108.107.107.322.214.43.322.107.108.214.214.43.322.107.108.215.214H50l.43.322.429.43.214.214.215.107.107.108.322.214.43.322.536.322v.108l.322.107v.107M43.454 67.6h.536l1.18-.107h.108l.107.107h.43v.108h.107v.214h.107v.108l.108.107.429.322v.107l.536.43.322.321.322.322.108.108.214.214.108-.214.214-.108.537-.429.322-.322.322-.322.536.537.43.322v.107l.322.215.107.107h.107v.107l.43.322v.108h.107l.214.214.108.108.322.214v.108h.107l.107.214h.108l.107.108.215.214v.107l.214.43.322.429.108.215.214.214.107.108-.321.322-.108.107-.322.215-.214.321-.215.215-.215.322-.214.215-.215.429h-.107l-.215.43-.322.536-.322.322-.322.536-.322.43-.107.107v.107l-.107.108-.215.214-.107.215-.108.107-.322.537-.214.43-.322.321-1.395 2.04-.215.321-.107.107h-.215l-.107.108h-.215l-.107.107-.108.107-.214.215.107.537v.214l-.858 1.288h-.108v.107l-2.79 4.079-2.898 4.078-.322.536-.75 1.073-.108.108h-.107v.107l-.215.215v.107-.107h-.107l-.108-.108-.107-.107-.644-.644-3.327-3.005-.215-.214-.643-.537-3.327-3.112-.322-.322-.215-.215-.215-.214-.107-.108-.215-.214-.321-.215-.108-.107-.322-.322-.214-.215-.108-.107-.644-.537-.536-.43-.537-.536v-.107l-.751-.644-.751-.644-1.503-1.395-.107-.107-1.503-1.396.215-.107.107-.107.43-.322h.107l.107-.107.215-.108.215-.214h.107l.107-.108.108-.107.214-.215.215-.107.107-.107.537-.537v-.107l.644-.644.214-.43h.108l.322-.536.107-.107.107-.108.108-.107.107-.107v-.108l.215-.214h.107l.322-.43.43-.536.106-.107.43-.108.322-.107.429-.215h.107l.108-.107.107-.107h.107l.322-.322.43-.322.321-.322.43-.215.214-.215.108-.107.107-.107h.107l.108-.107.107-.108.107-.107.215-.107.107.107.107.107.108.108.107.107.322.214.43.537h.107l.214.215.108.107.214.215.108.107.214.215.215.214.214.215.215-.644.322-.751.215-.644.107-.215v.108l.107.107h.108l.107.107.107.107v-.107l.752-.751.214.215.108.107.107.107.107.108.107.107.108.107h.107l.215.215v.107h.107V72l.107.108.215-.108.859-.858.107-.107h.107l.108-.215.214-.215.107-.107v-.107h.108l.214-.215.215-.215.107-.107.108-.107.107-.108.107-.214.215-.108.215-.214v-.108l.644-.643h.107v-.108l.107-.107.108-.107v-.644l.429.107h.322l.429.107h1.18" stroke-width=".10732"/><path d="M82.518 51.502v.108h.429v.107l.107-.107.108-.108.214.108.108.107h.107v-.107h.43v-.215.107h.106l.215.108v.107-.107l.215.107h.322l.214-.107.322-.215.108-.107h.322l.214.107h.108l.214-.107h.537v.322l-.215.107-.107.107-.215-.214-.107-.108-.107-.107-.108.107-.107.108-.107.214v.322l.107.215.107.215.108.107v.43h.107v.214h.107v-.322h-.107v-.107h.107-.107v-.108h.107v.108l.108-.108v-.107l.107-.107.107-.108h.107l.108.108h.107l.107.107v-.107h-.107v-.644l.107-.108v-.322h.108v-.107h.107v-.107h.215v-.107l.107-.108h.751l.215.108h.107l.108-.108h.321l.108.108.107.107h.107l.108.107v.322l.107.107v.215l.107.215v.107l.108.107v.108l.107.107v.537h-.107v.107H89.6l-.215-.107h-1.18v.107h-.108l-.107-.107v-.108h.107l-.107-.107h-.215l-.107.107h-.107v.108l.322.322v.214h.107v-.322h.537l.214.108.537.536.214.107h.108l.107.108h.322l.215.214.214.215h.108v.107l.322.322v.322l-.322.215-.215.215.107.107h-.107v-.107l-.322.107.107.107-.536.108h-.322l.107.107h-.215v-.107h-.107v-.108l-.107-.322-.215.108-.107-.108h-.107v-.107l-.108-.107h-.107v-.108l-.107-.107h-.108v-.107l-.107-.108h-.107v-.107l-.108-.107h-.107v.107h-.215l-.107.107v-.107h-.322v.107l.215.215v-.107l.107.107h-.107l.214.215v-.108l.108.108h-.108l.215.214v-.107l.107.107h-.107l.215.215v-.107l.107.107h-.107l.214.215v-.108l.108.108h-.108l.108.107v.107h-.108v.107h-.214v.108h-.108v-.108l-.107.108-.215-.215v.107-.107l-.214-.107v-.107l-.108-.108h-.107v-.107l-.107-.107-.215.214-.107-.107-.43-.537-.107.108.537.644-.43-.43-.321-.214-.215.214-.43.43.108.107h-.107v.214l.107.108v.214h.215v.108h-.108v.322l.108.107v.107l.107-.107v.215h.43l.214.107-.43.215h-.214v.322-.108h-.107v-.107.107h-.43v.108l-.429-.215-.43-.322v-.107l-.107-.108v-.107l-.214-.43-.107-.321h.107v-.108h-.215v-.107h-.322l-.107-.214-.215-.215-.107-.107-.107-.108-.537-.429-.644-.537-.536-.322-.859-.644-.107.108-.322-.215h-.108l.322.322-.107.107h.107l.108.215 2.039 1.61h.107v.107h.107v.108h.108v.107h.107v.107h.107v.215h.108v.107h.107v.215h.107v.322h.108v.322l.107.214.107.537h.108v.43l-.108.321-.107.43-.107.214v.107l-.215.322-.751.537-.108.107-.214.215-.108.215-.429.321h-.966l-.322.108-.107.214.215.43.966.429.107.107.215.537.107.322v.107l.107.215-.107.214-.107.215-.108.107-.322.108-.429.322-.43.429-.214.215-.107.214v.108h-.108l-.214.107h-.644l-.215.107-.107.108-.215.107-.214.214-.215.108-.537.322h-.107l-.322.322-.215.214-.214.108-.107.214-.108.215.215.537-.107.214-.215.215-.43.214h-.107l-.322.215-.429.644-.215.322-.536.107h-.108l-.214-.107v.107h-.644v.108h-.537l-.107.107v-.107.107h-.859v-.107.107h-1.61v.107h-.107v.108h-.214v.107l-.215.107v.108h-.107v.214h-.108v.107h-.107v.108l-.107.107V72h-.108v.108h-.107v.107h-.107v.107h-.107l-.108.108h-.107l-.107.107v-.107h-.108v.107h-.214v.107h-.215l-.107.108-.215.107-.107.107-.108.108-.107.107-.107.107h-.322l-.108.108h-.214v-.108h-.43v-.107h-.214v-.107h-.43l-.107.107h-.107l-.107-.107h-.108l-.107-.108v-.214l-.644-.215h-.107v.107h-.215v-.107h-.214v-.215h-.108v-.107l-.107-.107-.107-.108H63.2l-.107-.107h-.107v-.107h-.966v.107h-.215V72h-.43v.108h-.643L60.517 72h-.214l-.108-.107h-.107l-.107-.107h-.108l-.107-.108v-.107h-.322v-.107.107-.107h-.43v-.107h-.965v.107h-.322l-.107.107h-.322v.107h-.43l-.536.215-.537.215-.322.107-.322.107h-.107l-.215.215-.322.107-.322.215-.214.215h-.108l-.107-.108-.214-.214-.108-.215-.322-.43-.214-.429v-.107l-.215-.214-.107-.108h-.108l-.107-.214h-.107v-.108l-.322-.214-.108-.108-.214-.214h-.108v-.108l-.429-.322v-.107h-.107l-.107-.107-.322-.215v-.107l-.43-.322-.536-.537.322-.322.214-.214.43-.43.429-.429.215-.215v-.107h-.108l-.536-.536-.215-.215-.107-.107h-.108l-.322-.322-.322-.322v-.108l-.107-.107.537-.322.429-.215h.215l-.108-.536v-1.18l.108-.108h.214l.108-.107h.429l.107-.108h.322l.215-.107h.429l.107-.107h.215l.322-.108h.43v-.107h.107l.536-.107.537-.108.536-.107.537-.107h.215l.214-.108h.108l.429-.107h.107l.43-.107h.107l.536-.107.537-.108.43-.107h.214l.214-.107.108-.322v-.215l.107-.322v-.322l.107-.215-.107-.107-.107-.322v-.107l-.215-.644-.107-.644v-.644l.322-.107.107-.108h.322l.107-.107h.108l.429-.107.644-.108h.107l.322-.107h.107l.752-.107h.536l.43-.107h.214l.43-.108h.536l.644-.214h.107l.537-.108.43-.107.536-.107.322-.108h.429l.107.537v.644l.108.536v.43l.107.536v.108l.107.75.322-.107.322-.107h.108l.321-.107.215-.107.215-.108.536-.107.537-.215.322-.107.322-.322.322-.215.107-.214h.107v1.18h.43v-.214l.214-.215h.108v-.107l.107-.322.215-.43-.108-.536-.107-.108.215-.107.322-.214.107-.108.43-.322.428-.214.43-.322h1.18l.215-.108h.107v.752l.108.429v.322l.107-.108.322-.429.107-.107.537-.537v-.966h.644l1.287-.107h.215v-.107l.107-.108.215-.214.107-.108v-.214h.108l.107-.215.215-.322.214-.214.108-.108.322-.429.107-.107.107-.108.215-.322.215-.214.107-.215.107-.214.215-.108.107-.214.107-.108.108-.107.107.215.107.429.108.214m-5.58-23.18h.214v.107h.214v.107h.108l.858.644 1.717 1.18 1.18.752v.107h.108v.215l.43 2.253.107.43.322 1.824.107.966.107.537v.214h.108v.215h.107v.107h.107-.107v-.107h-.107v-.107h-.108v-.322l-.322-1.503-.322-2.254-.429-2.253v-.215h-.107v-.107h-.215v-.107l-2.683-1.825-.322-.215-.536-.429h-.108v-.107h-.75v.107h-.108v-.107h.322v-.107h.107" stroke-width=".10732"/><path d="M74.576 30.897l2.576-.214h.107l.966.75h.107v.215l-2.253.215v.107h.107l.322.215v.107h.107l.107.108h.108l1.502-.108 1.073-.107.322.215.537.429.107.215h-.107l-.751.107-1.18.107h-.323v.108l.215.214v.107l.107.108h.108v.107l1.824-.215h.322l.107.859h-.107l-.215.107-1.395.108v.322l.107.214v.108l1.61-.215v.107l.108.322h-.108v.108h-.107v.107h-.215l-.214.107.107.108h-.107v.107-.215h-.215l-.751.215h-.108l-.75.214h-.215l-.966.322.107.108v.107l.107.107h.108v-.107.107h.322v.108l.107.107.215.322v.107l.214.537h.108l.214.536v.215h-.107v-.107h-.107v-.108l-.108-.107-.107-.214-.107-.215v-.107h-.215v.107h-.215v.107h-.107v-.107.107h-.107l-.215.215h-.107l-.43.214.108.43v.107h.107v.215l.322.966h.537v.107l.107.107h.107v-.107l-.107-.107v-.108h1.073v-.107l-.322-.751v-.108h.215l.214.644h.322l.108-.107.214-.107.322-.215h.108l.214-.107v-.322h.752l1.824-.108 1.288.215v.107l-.322-.107-.966-.215-1.18.108-.108.107h.215l.107.107h.322l.107.108h.108v.107l.107.107h.215v.108h.107l.107.107.108.107h.107v.108l.107.107.108.215.107.107.107.107h.108l.107.108v.107l.107.107.107.108.108.107h.107l.107.107.108.107v.108l.107.107.107.107.108.108h.107l.215.322h.214l.108.107.107.107h.107v.108h.108v.107h.107v.322h.107v.644l.108.107v.43h.107v.75l.107.215.108.108v.107l.214.107.107.108.108.107.214.107.215.215.107.107.108.108.107.107.107.107.108.107h.107l.107.215h.108l.107.107v.108l.107.214v.108l.108.107v.107l.107.322v.322l.107.108v.214l.108.215V50h-.108l-.107.215-.107.107h-.966l-.108.107h-.322l-.107.108h-.966.108-.322.107-.107v-.108h-.215v-.107h-.537v-.107h-.107v.107h-.215v.107h-.214v.108l-.108.107v.215h-.107v.107l.215-.107v.107h.107v-.107l.107.107-.107.107v.108h-.215v-.108h-.107v.108h.107v.107h.108-.108v.107h-.107l-.107.107h-.215v-.107.215h-.43v.107h-.106l-.108-.107-.214-.108-.108.108-.107.107v-.107h-.43v-.108l-.107-.214-.107-.43-.107-.214-.108.107-.107.108-.107.214-.215.108-.107.214-.107.215-.215.214-.215.322-.107.108-.107.107-.322.43-.108.107-.214.214-.215.322-.107.215h-.108v.214l-.107.108-.215.214-.107.108v.107h-.215l-1.287.107h-.644v.966l-.537.537-.107.107-.322.43-.107.107v-.322l-.108-.43v-.75h-.107l-.215.107h-1.18l-.43.322-.429.214-.43.322-.106.108-.322.214-.215.107.107.108.108.536-.215.43-.107.322v.107h-.108l-.214.215v.214h-.43v-1.18h-.107l-.107.214-.322.215-.322.322-.322.107-.537.215-.536.107-.215.108-.215.107-.321.107h-.108l-.322.107-.322.108-.107-.751v-.108l-.107-.536v-.43l-.108-.536v-.644l-.107-.537v-1.502l-.107-.108v-2.468l-.108-.536v-.644l.108-.537v-.322l-.108-.107v-2.361l-.107-.537v-1.824l-.107-.108v-1.18l-.108-.43v-.107l-.107-.536v-.644h.537l.107-.108h1.395l.43-.107v-.536l-.108-.537v-1.288h-.107v-.858l-.215-.644.43-.43.429-.536.429-.43.43-.643h.107l-.108-.108-.107-.107-.215-.107-.107-.322v-.108l-.107-.107-.108-.215-.107-.214-.107-.108v-.107l-.108-.107-.107-.108-.107-.214-.108-.107-.214-.215-.215-.107v-.108l-.107-.107h-.107l-.108-.107h-.107v-.108h-.107v-.107h-.108l-.107-.107h-.107l-.108-.108h-.107v-.107h-.107l-.108-.107h-.107v-.108h-.107l.107-.322.43-.643.214-.322h.644l.214-.108h.537v.108h1.288l.107.107h.108l1.287.858 1.18-.107h.323l.43.322.428-.751-1.073-.751h.108l.107-.108v.215l.322.107.43.322M40.34 5.033h.215v.108l.107.107v.107h-.107v.108l.107.107.108.107h.107l.107.108h.108v.107l.107.107v.107h.214v.215l.108.107v.108l.107.107v.322h-.107v.107l-.108.108h-.107v.107H41.2v.107h-.107v.108h-.108v.107h-.107v.107h-.107l-.108.108v.107l.108.107.107.108v.107h.107v.644l-.214.107-.537.322-.751.43-.108.107h.215l.859-.43.214-.107.215-.215h.107l.215-.107.107-.107.107-.108h.108V8.36h.107l.107-.107v-.107l.215-.215v-.107h.107v-.108l.108-.107v-.107h.107v-.108l.107-.107V7.18h-.107l.107-.108v-.107l.108.107.107.108v.107l.107.215h.108v.536l.107.108v.214h.107v.537l-.107.107h-.215l-.107.107h-.107l-.108-.107v.107h-.644v.108h-.107l-.107.107-.215.215-.107.214v.108h-.107v.429h-.108l.108.107v-.107l.107.107.107.108v.107l.107.107h.108l.214.215.215.107h.215l.107-.214v-.108l.107-.107.108-.107h.107v-.215h.215l.107-.107.107-.108.108-.107v-.43l-.108-.214.215-.107V9.11l.215-.107h.107v.215h-.107l-.108.107v.107l.215.322v.322h-.107v.215-.107l.107-.108V9.97h.107l.215.215.536.322h.108l.107.107.215.215h.107l.322.214.215.215.429.214v.108h.107l.108.107h.107l.214.215v-.108h-.107v-.107h-.107v-.107h-.107v-.215h-.215v-.107h-.107v-.215l-.108-.107v-.107H45.6v-.108h-.107v-.107h-.215v-.107h-.215v-.108h-.107v-.107h-.107v-.107h-.108v-.108h-.107l-.107.108h-.108v-.108h-.107v-.214h-.43v.107-.215h.108v-.107h.107v-.107h.108v-.108h.107v-.107h.859l.107.107h.322v.108h.215l.107.107h.107v.107h.108v.108h.107v.107l.107.107h.107v.108l.108.107v.107h.107v.215h.107v.107l.108.108v.643h.107v-.107l.107.107v-.322l.215.215.107.107h.108l.107-.107.107-.107h.108v.107l.107-.107h.537v.107h.107l.107.107h.107l.108.108.107.107v.215h.107v.214h.108v.322l.107.108h-.107.107l.107.107h.215l.107.107H50v.108h.107l.108.107h.107v.107h.107v.108h.108v.107h.107v.107h.107v.107h.108v.215h.107v.215h.107v.322l.108.107v.537l.214-.108v-.107h.107v.43l-.107.107h-.107.107l-.214-.215v.322h.107v.107h.107v.215h.107v.107h.108v.108h.107v.107h.215v-.107.107h.214l.108-.107h.107v.107h.107v.214l.108.108v-.108h.214l.108-.107h.107l.107.107v.108h.108v.107l-.43.859v.107h-.107l-.215-.107-.429-.215-.107-.107-.215-.108h-.644l-.107.108-.215.107-.107.107h-.107l-.108.108-.429.322-.43.322-.107.107v.107l.215.215-.43.322h-.214v.107h-.107l-.108.107-.107.108-.107.107-.107.107-.108.108-.107.107-.107.107h-.108l-.107.108h-.215l-.107.107-.215.107h-.107l-.107.108-.108.107-.107.107-.107.108-.108.107v.107l-.107.108v.429h.107v.322h.108v.107l.107.107v.108h.107l.108.107.107.107v.108h.107l.108.107h.107l.107.107h.108l.107.108h.215l.214.107h.751v-.107h.215v.214l-.215.215h-.965l-.322-.107h-.43l-.429-.108h-.322v.108l-.107.107-.108.215-.321.322-.43.321-.429.215-.322.322-.215.107-.214.108-.322.322-.215.107-.215.322-.321.322.214.107.215.108.43.322h.106l.108.107.322.214.322.215.322.107.107.108.107.107.322.107.108.108.214.107.107.107.43.322-.322.43-.322.429-.322.322-.215.214-.107.215.107.107.322.215.108.107v.108l.321.214.43.537.214.215.108.107-.215.322-.43.43-.321.428-.107.108-.322.429-.108.215-.322.429h-.107l-.43-.322h-.214l-.322-.215-.43-.214-.107-.108h-.107l-.214-.107-.108-.107h-.107l-.215-.108-.214-.107-.108-.107h-.107l-.322-.108h-.107l-.322-.214h-.215l-.536-.215-.215-.107-.322-.107-.43-.215h-.321l-.322-.107h-.644l-.108-.215h-.107l-.43-.537-.214-.322-.107-.107-.322-.43-.751-.536-.43-.322-.536-.43-.322.216-.322-.537-.322-.43-.322-.429-.322-.536-.322-.43-.322-.536-.214-.322.107-.107.214-.215.537-.322.215-.215h.107l.322-.322.43-.321.429-.322.429-.43-.107-.107-.322-.107.214-.215-.214-.43-.322-.429-.215-.214-.107-.107-.215-.322-.107-.215-.43-.43-.214-.429-.108-.214-.322-.43-.107-.214-.107-.108-.215-.429-.322-.536.322-.215.322-.322.43-.215.321-.214.322-.215.43-.215.322-.321.107-.108-.107-.107-.108-.107-.107-.108v-.107l-.107-.107-.108-.215-.214-.322-.215-.322-.215-.43-.214-.321-.215-.43-.322-.429-.214-.322-.215-.322-.215-.429-.214-.43-.215-.321-.107-.107v-.108l-.108-.107.322-.215.215-.107h.107v-.107h.108l.322-.215.965-.43 1.288-.75.108-.108h.214l.215-.215h.107l.215-.107.322-.214.429-.215.107-.107.215-.322.859-1.18.107-.108.43-.644.428-.537h.859v-.107l.107.107" stroke-width=".10732"/></g></svg>