<svg xmlns="http://www.w3.org/2000/svg" height="100" viewBox="0 0 100 100" width="100"><g fill="#4d4d4d"><path d="M18.548 65.062h76.709V51.475C79.67 48.5 65.633 38.586 52.359 25.236a3.034 3.034 0 0 0-2.305-1.072h-20.8c-1.659 0-3.502 1.022-4.81 3.033-6.804 11.314-6.838 23.104-7.886 35.004.085 1.48.867 2.486 1.99 2.86zM89.71 52.816c1.124.268 2.23.486 3.302.662v5.137a108.213 108.213 0 0 1-3.302-.327v-5.472zm-6.779-2.07a68.16 68.16 0 0 0 3.947 1.307v5.866a113.868 113.868 0 0 1-3.947-.636v-6.537zm-8.187-3.545a83.147 83.147 0 0 0 4.742 2.187v7.207c-1.625-.352-3.21-.728-4.742-1.13V47.2zm-8.456-4.844a78.47 78.47 0 0 0 5.447 3.269v9.008a102.325 102.325 0 0 1-5.447-1.76V42.357zM56.8 34.739c1.834 1.895 4.08 3.789 6.594 5.615v11.448c-2.572-1.006-4.793-2.02-6.594-2.958V34.739zm-7.685 23.759H42.63v-3.344h6.487v3.344zM27.948 27.583h21.52L48.37 42.4H23.556c.654-5.204 1.978-10.19 4.392-14.816zm-7.811 27.571h6.478v3.344h-6.478v-3.344zM96.665 68.68v-1.944H17.791v1.943h1.877l-1.768.78h-4.584l-2.599 1.4h3.972l-3.436 1.508H8.74l-2.599 1.408h1.912l-4.718 2.061h7.24l4.283-2.06h16.96l-4.717 2.06h7.232l4.29-2.06h7.634l2.607-1.41h-7.332l3.116-1.508h6.194l2.598-1.4h-5.883l1.609-.778h47.5zM35.02 72.366H17.765l3.126-1.509h17.565l-3.436 1.509zm6.637-2.908H23.791l1.617-.78h18.026l-1.777.78z"/></g></svg>