<svg xmlns="http://www.w3.org/2000/svg" viewBox="0 0 100 125"><path d="M96 34.7v-4.4c0-.7-.6-1.3-1.3-1.3h-4.4c-.7 0-1.3.6-1.3 1.3H72.6v-4.2H70v-2.9c0-5-4.1-9-9-9H41c-5 0-9 4.1-9 9v2.9h-2.6v4.2H12.9c0-.7-.6-1.3-1.3-1.3H7.2c-.7 0-1.2.6-1.2 1.3v4.4c0 .4.2.8.5 1v47.9c-.3.2-.5.6-.5 1V89c0 .4.2.8.5 1v.3h5.9c.7 1.1 1.9 1.9 3.3 1.9s2.6-.8 3.3-1.9h64c.7 1.1 1.9 1.9 3.3 1.9s2.6-.8 3.3-1.9h5.9V90c.3-.2.5-.6.5-1v-4.4c0-.4-.2-.8-.5-1V35.7c.2-.2.5-.6.5-1zM31.9 53.9c-5.4 2.5-11.1 1.8-12.6-1.5s1.6-8 7-10.5 11.1-1.8 12.6 1.5-1.6 8-7 10.5zm31.8-23.6H38.2v-4.2h-1.7v-.3c0-4.3 3.1-7.7 6.9-7.7h15.2c3.8 0 6.9 3.4 6.9 7.7v.3h-1.7v4.2zM77 40.4l3.3 8.4L68 53.6l-3.3-8.4L77 40.4zm-2 37.5c-4.7 0-8.5-3.8-8.5-8.5s3.8-8.5 8.5-8.5 8.5 3.8 8.5 8.5-3.8 8.5-8.5 8.5z"/></svg>