<svg xmlns="http://www.w3.org/2000/svg" viewBox="0 0 59.502367 83"><path d="M57.502 13.5L44.002 1s-.8-1-2-1h-41c-1.1 0-1 1-1 1v81s0 1 1 1h57.4s1.1-.4 1.1-1.5V19.7h-19c-1.6 0-1.5-1-1.5-1V0h3v16.2s-.2 1 1 1h16.5V17c0-1.6-2-3.5-2-3.5zm-46-5.7h22c.8 0 1.5.7 1.5 1.5s-.7 1.5-1.5 1.5h-22c-.8 0-1.5-.7-1.5-1.5s.7-1.5 1.5-1.5zm4.7 62.5c-.5.6-1.3.9-2.3 1v1.5h-1v-1.5c-1.6-.2-2.6-1.1-3-2.8l1.9-.5c.2 1.1.7 1.6 1.7 1.6.5 0 .8-.1 1-.3.2-.2.3-.5.3-.8 0-.3-.1-.6-.3-.8-.2-.2-.7-.4-1.4-.7-.7-.2-1.2-.5-1.5-.7-.4-.2-.7-.5-.9-1-.2-.4-.3-.9-.3-1.4 0-.7.2-1.4.6-1.9.4-.6 1.2-1.1 2-1.2v-1.5h1v1.5c1.3.2 2.3 1.1 2.7 2.5l-1.6.7c-.3-1-.8-1.4-1.5-1.4-.3 0-.6.1-.8.3-.2.2-.3.5-.3.8 0 .3.1.5.3.7.2.2.6.4 1.3.6.7.3 1.3.5 1.7.8.4.2.7.6 1 1 .2.4.4.9.4 1.5-.2.7-.5 1.4-1 2zm0-17.5c-.5.6-1.3.9-2.3 1v1.5h-1v-1.5c-1.6-.2-2.6-1.1-3-2.8l1.9-.5c.2 1.1.7 1.6 1.7 1.6.5 0 .8-.1 1-.3.2-.2.3-.5.3-.8 0-.3-.1-.6-.3-.8-.2-.2-.7-.4-1.4-.7-.7-.2-1.2-.5-1.5-.7-.4-.2-.7-.5-.9-1-.2-.4-.3-.9-.3-1.4 0-.7.2-1.4.6-1.9.4-.6 1.2-1.1 2-1.2v-1.5h1v1.5c1.3.2 2.3 1.1 2.7 2.5l-1.6.7c-.3-1-.8-1.4-1.5-1.4-.3 0-.6.1-.8.3-.2.2-.3.5-.3.8 0 .3.1.5.3.7.2.2.6.4 1.3.6.7.3 1.3.5 1.7.8.4.2.7.6 1 1 .2.4.4.9.4 1.5-.2.7-.5 1.4-1 2zm0-17c-.5.6-1.3.9-2.3 1v1.5h-1v-1.5c-1.6-.2-2.6-1.1-3-2.8l1.9-.5c.2 1.1.7 1.6 1.7 1.6.5 0 .8-.1 1-.3.2-.2.3-.5.3-.8 0-.3-.1-.6-.3-.8-.2-.2-.7-.4-1.4-.7-.7-.2-1.2-.5-1.5-.7-.4-.2-.7-.5-.9-1-.2-.4-.3-.9-.3-1.4 0-.7.2-1.4.6-1.9.4-.6 1.2-1.1 2-1.2v-1.5h1v1.5c1.3.2 2.3 1.1 2.7 2.5l-1.6.7c-.3-1-.8-1.4-1.5-1.4-.3 0-.6.1-.8.3-.2.2-.3.5-.3.8 0 .3.1.5.3.7.2.2.6.4 1.3.6.7.3 1.3.5 1.7.8.4.2.7.6 1 1 .2.4.4.9.4 1.5-.2.7-.5 1.4-1 2zm26.3 34h-13.5c-.8 0-1.5-.7-1.5-1.5s.7-1.5 1.5-1.5h13.5c.8 0 1.5.7 1.5 1.5 0 .7-.8 1.5-1.5 1.5zm10-6h-23.5c-.8 0-1.5-.7-1.5-1.5s.7-1.5 1.5-1.5h23.5c.8 0 1.5.7 1.5 1.5 0 .7-.8 1.5-1.5 1.5zm-25-13c0-.8.7-1.5 1.5-1.5h13.5c.8 0 1.5.7 1.5 1.5s-.7 1.5-1.5 1.5h-13.5c-.8-.1-1.5-.8-1.5-1.5zm25-4.6h-23.5c-.8 0-1.5-.7-1.5-1.5s.7-1.5 1.5-1.5h23.5c.8 0 1.5.7 1.5 1.5s-.8 1.5-1.5 1.5zm-25-12.4c0-.8.7-1.5 1.5-1.5h13.5c.8 0 1.5.7 1.5 1.5s-.7 1.5-1.5 1.5h-13.5c-.8-.1-1.5-.8-1.5-1.5zm25-7.6c.8 0 1.5.7 1.5 1.5s-.7 1.5-1.5 1.5h-23.5c-.8 0-1.5-.7-1.5-1.5s.7-1.5 1.5-1.5h23.5z" fill="#fff"/></svg>