<svg height="512" width="512" xmlns="http://www.w3.org/2000/svg"><g fill="#4d4d4d"><path d="M338.86 271.99l143.848 143.85c17.723 17.721 17.723 46.243 0 63.965-17.72 17.723-46.273 17.723-63.995 0L276.18 337.271a172.102 172.102 0 0 0 11.378-7.586c21.59-14.858 38.914-34.868 51.303-57.694z"/><g font-weight="400" color="#2d2d2d" font-family="Sans"><path d="M181.856 18.905c-42.537 0-85.068 16.145-117.39 48.467-64.64 64.644-64.614 170.136.03 234.78 64.643 64.647 170.137 64.673 234.78.028 64.644-64.644 64.644-170.166 0-234.81-32.321-32.322-74.882-48.467-117.42-48.467zm.03 45.57c30.706 0 61.402 11.77 84.96 35.327 47.11 47.114 47.084 122.803-.03 169.92-47.117 47.098-122.779 47.109-169.889 0-47.118-47.115-47.144-122.805-.03-169.92 23.559-23.557 54.283-35.326 84.99-35.326z" style="text-indent:0;text-align:start;line-height:normal;text-transform:none;block-progression:tb;-inkscape-font-specification:Sans" overflow="visible"/><path d="M181.84 74.832c-5.573 0-10.163 4.603-10.163 10.177v13.167c-13.006 1.593-25.56 6.13-34.068 14.63-8.728 8.768-13.128 20.257-13.128 33.703 0 10.247 2.162 18.987 6.768 25.89 4.456 6.687 10.349 11.879 17.503 15.494 6.32 3.192 14.007 6.036 22.925 8.621v44.688a24.717 24.717 0 0 1-6.243-4.062c-2.697-2.398-4.633-4.968-5.905-7.733v-.01c-1.385-3.007-3.098-7.554-5.068-13.533v-.048c-1.083-3.4-3.16-6.296-6.048-8.256v-.01c-2.924-1.98-6.49-2.926-10.346-2.926-4.923 0-9.415 1.865-12.762 5.304-3.269 3.355-5.109 7.532-5.109 11.953 0 5.289 1.126 10.635 3.345 15.989 2.25 5.433 5.707 10.584 10.267 15.454 4.65 4.963 10.422 9.078 17.23 12.344 0 0 .01.01.029.01 6.231 2.928 13.29 4.791 20.651 5.708v13.167c0 5.575 4.59 10.164 10.164 10.164s10.163-4.589 10.163-10.164v-13.219c9.252-1.135 18.357-3.74 26.348-8.19.038-.02.067-.039.106-.048 8.158-4.943 14.468-11.465 18.72-19.373 4.216-7.839 6.335-16.333 6.335-25.303 0-7.155-1.339-13.839-4.01-19.947-2.667-6.078-6.49-11.346-11.418-15.728 0-.01-.01-.02-.029-.029-4.589-4.184-9.834-7.449-15.662-9.666-5.2-1.983-12.086-4.121-20.392-6.44v-38.824c6.143 2.95 9.86 7.587 11.704 14.579v.029c1.202 4.388 3.216 8.016 6.22 10.528 3.001 2.513 6.89 3.736 11.128 3.736 4.631 0 8.902-1.769 12.161-5.028 3.247-3.24 5.07-7.45 5.07-11.98 0-3.951-1.093-8.077-3.044-12.384v-.01c-1.958-4.316-4.707-8.45-8.204-12.422 0-.02-.028-.038-.038-.048-4.514-5.29-9.897-9.344-16.028-11.99 0 0-.01-.01-.029-.01-5.65-2.379-12.145-3.884-18.953-4.65V85.033c0-5.368-4.268-9.789-9.563-10.11 0 0-.029-.01-.038-.01a3.685 3.685 0 0 0-.562-.048zm-10.163 52.213v33.141c-4.036-1.827-7.086-3.761-9.13-5.643-2.462-2.266-3.803-5.566-3.803-10.803 0-5.526 1.415-8.962 4.05-11.26 2.191-1.91 5.665-4.133 8.883-5.435zm20.327 75.674c5.5 2.065 9.73 4.406 12.554 6.91 3.205 2.846 4.82 6.688 4.82 12.45 0 5.235-1.686 9.56-5.265 13.533-2.907 3.222-6.913 5.567-12.11 7.08z" style="text-indent:0;text-align:start;line-height:normal;text-transform:none;block-progression:tb;-inkscape-font-specification:Sans" overflow="visible"/></g></g></svg>