<?xml version="1.0" encoding="UTF-8" standalone="no"?>
<svg
   xmlns:dc="http://purl.org/dc/elements/1.1/"
   xmlns:cc="http://creativecommons.org/ns#"
   xmlns:rdf="http://www.w3.org/1999/02/22-rdf-syntax-ns#"
   xmlns:svg="http://www.w3.org/2000/svg"
   xmlns="http://www.w3.org/2000/svg"
   xmlns:sodipodi="http://sodipodi.sourceforge.net/DTD/sodipodi-0.dtd"
   xmlns:inkscape="http://www.inkscape.org/namespaces/inkscape"
   height="100"
   viewBox="0 0 100 100"
   width="100"
   id="svg4065"
   version="1.1"
   inkscape:version="0.48.5 r10040"
   sodipodi:docname="ecologia.svg">
  <metadata
     id="metadata4073">
    <rdf:RDF>
      <cc:Work
         rdf:about="">
        <dc:format>image/svg+xml</dc:format>
        <dc:type
           rdf:resource="http://purl.org/dc/dcmitype/StillImage" />
      </cc:Work>
    </rdf:RDF>
  </metadata>
  <defs
     id="defs4071" />
  <sodipodi:namedview
     pagecolor="#ffffff"
     bordercolor="#666666"
     borderopacity="1"
     objecttolerance="10"
     gridtolerance="10"
     guidetolerance="10"
     inkscape:pageopacity="0"
     inkscape:pageshadow="2"
     inkscape:window-width="1702"
     inkscape:window-height="929"
     id="namedview4069"
     showgrid="false"
     inkscape:zoom="1.020841"
     inkscape:cx="-96.529957"
     inkscape:cy="96.823138"
     inkscape:window-x="0"
     inkscape:window-y="0"
     inkscape:window-maximized="0"
     inkscape:current-layer="svg4065" />
  <path
     d="m 17.432922,43.045092 c 0,-1.213846 -0.0066,-3.260049 -0.433395,-5.239928 2.609362,0.100758 3.147417,3.485313 3.147417,7.95395 v 2.828011 c -0.97145,0.07684 -1.881835,0.326022 -2.714022,0.742116 V 43.045092 z M 47.287166,89.353094 H 28.560752 c 0,-5.428044 -0.678505,-6.867155 -3.723808,-8.380561 -4.098852,-2.038231 -6.736033,-4.661842 -8.51711,-6.676325 C 10.594943,67.810543 6.5768334,60.641115 6.5768334,55.602703 V 43.214718 c 0,-5.428044 1.1529506,-8.142066 4.8847306,-8.142066 2.714022,0 3.257336,3.434934 3.257336,7.97244 v 8.642973 c -2.27944,3.352835 -1.404676,8.181758 1.243022,11.174137 0.02782,0.02918 2.843956,2.973721 6.69227,7.572292 l 3.462752,3.819307 c 0.103303,0.148423 0.21339,0.283785 0.348583,0.384543 0.890539,-2.077923 -0.763319,-5.216011 -1.521379,-6.11978 -0.384374,-0.4585 -0.747374,-0.88528 -1.10783,-1.309346 -3.37794,-3.967901 -5.719632,-6.414083 -5.719632,-6.414083 -1.887094,-2.13356 -2.589516,-6.03768 -0.333994,-8.147324 2.258236,-2.104215 5.974071,-1.009616 7.861164,1.126659 l 7.548375,8.61651 c 2.446352,0.196088 6.404753,0.800637 9.108088,3.114171 3.98639,3.407964 4.986847,7.56381 4.986847,23.847943 z M 82.566739,49.329241 c -0.832187,-0.416094 -1.741554,-0.665275 -2.711308,-0.742116 v -2.828011 c 0,-4.468637 0.535341,-7.853192 3.14606,-7.95395 -0.429324,1.979879 -0.434752,4.025912 -0.434752,5.239928 v 6.284149 z M 57.703243,65.504642 c 2.700791,-2.313873 6.657835,-2.918082 9.104187,-3.114171 l 7.548374,-8.61651 c 1.887094,-2.136275 5.602929,-3.230874 7.861165,-1.126489 2.255522,2.109813 1.553099,6.013763 -0.333994,8.147324 0,0 -2.343049,2.446352 -5.719632,6.414082 -0.360456,0.424066 -0.723796,0.850846 -1.10783,1.309347 -0.75806,0.903769 -2.411918,4.041857 -1.521379,6.11978 0.135192,-0.100758 0.243923,-0.23595 0.349939,-0.384373 l 3.461396,-3.819477 c 3.848484,-4.598232 6.663094,-7.543116 6.69227,-7.572292 2.647528,-2.992548 3.525006,-7.821302 1.245736,-11.174137 v -8.642634 c 0,-4.537506 0.540769,-7.97244 3.254791,-7.97244 3.73178,0 4.884901,2.714022 4.884901,8.142066 v 12.387985 c 0,5.038412 -4.01811,12.20784 -9.743001,18.693335 -1.781077,2.014314 -4.415544,4.638264 -8.518467,6.676156 -3.042758,1.513745 -3.721263,2.952856 -3.721263,8.3809 H 52.71521 c 0,-16.284133 1.001813,-20.439979 4.988033,-23.848452 z M 53.724996,10.935326 C 40.39338,8.8813202 27.920582,18.017228 25.863862,31.348844 23.808499,44.677746 32.945764,57.153258 46.27738,59.209977 59.608995,61.263983 72.081793,52.128076 74.138513,38.79646 76.192519,25.467558 67.056611,12.992046 53.724996,10.935326 z M 41.741231,52.038004 C 34.575873,48.443961 30.207994,40.532586 31.496137,32.181031 c 0.05428,-0.344511 0.137906,-0.675791 0.209319,-1.004527 1.341066,3.829824 5.372407,1.879121 8.005517,4.519016 3.938555,3.933297 -1.248281,4.272549 -0.693094,7.744462 0.512781,3.206957 2.777632,2.324391 3.049374,4.484583 -0.886637,1.693549 -0.779264,3.063791 -0.326022,4.113439 z M 63.682573,48.47585 c -4.131929,4.131929 -10.095484,6.323842 -16.31721,5.364435 -0.280901,-0.04512 -0.543313,-0.113989 -0.817599,-0.169627 1.705593,-0.800467 2.880935,-2.19717 4.010138,-4.465923 0.874424,-1.783791 4.280182,-2.189198 4.688642,-3.967731 0.140451,-0.609637 0.707682,-3.061247 -1.433851,-4.982775 -1.500176,-1.357011 -4.092237,-1.338522 -6.029709,-1.722725 -2.289957,-0.453242 -2.910111,-3.819308 -4.079006,-4.100209 -2.340335,-0.559258 1.204686,-2.703506 -1.13972,-5.71166 -1.514763,-1.955962 -6.154215,2.798836 -5.789857,-1.086626 0.277,-2.979149 3.807264,-3.917353 6.744006,-3.106369 1.64334,0.453242 3.546209,5.531347 4.932396,4.980062 1.773104,-0.715654 -1.013857,-4.071034 1.06678,-4.760226 1.427236,-0.474445 -3.542308,-0.641358 -0.923616,-3.792677 2.361539,-2.843955 2.647529,-1.08934 3.68649,-4.739021 0.291758,0.03443 0.580462,0.04512 0.874594,0.09278 2.920797,0.450528 5.56595,1.561072 7.842506,3.127571 0.10873,0.824215 -0.810984,2.54711 0.132478,3.347407 1.147692,0.96738 -5.430927,1.070852 -5.430927,2.229061 -0.22272,3.397787 3.80862,2.18394 2.735225,7.739204 -0.774005,3.980962 1.669971,6.077374 2.896879,4.420973 0.874594,-1.176868 2.820039,1.391445 3.270566,2.353566 1.635877,3.50923 -4.677447,5.025181 -0.919205,8.950505 z"
     id="path4067"
     inkscape:connector-curvature="0"
     style="fill:#4d4d4d" />
</svg>
