<svg xmlns="http://www.w3.org/2000/svg" height="100" viewBox="0 0 100 100" width="100"><circle r="82.751" cy="91.345" cx="247.875" transform="translate(7.2 7.115) scale(.17154)" fill="#4d4d4d"/><path d="M66.791 47.65c-2.612-4.154-7.234-6.913-12.502-6.913h-8.926c-5.33 0-10 2.822-12.595 7.056 3.622 1.269 7.482 2.502 10.753 3.281 2.57.613 4.626 1.897 6.044 3.76 1.429-1.863 3.502-3.147 6.072-3.76 3.391-.808 7.418-2.106 11.154-3.425zm-23.965 6.498c-9.536-2.273-23.618-8.175-23.618-8.175v9.015c.172-.022.501-.013.724-.013h.262c3.416 0 6.047 2.569 6.047 5.733v6.93c0 3.165-2.63 5.692-6.047 5.692h-.262c-.223 0-.552.05-.724.029v4.746c0 4.72 8.148 7.024 12.248 8.065 4.098 1.04 17.257 5.241 17.257 5.241v-27.52c0-2.768.14-8.307-5.887-9.743z" fill="#4d4d4d"/><path d="M23.668 61.838a3.775 3.775 0 0 0-3.775-3.776h-.169a3.775 3.775 0 0 0-3.775 3.776v4.628a3.775 3.775 0 0 0 3.775 3.776h.17a3.775 3.775 0 0 0 3.774-3.776v-4.628zm50.262 5.8v-6.93c0-3.123 2.745-5.684 6.176-5.75v-8.985s-14.168 5.902-23.703 8.175c-6.028 1.436-5.974 6.975-5.974 9.744v27.52s13.245-4.202 17.343-5.243c4.1-1.04 12.334-3.345 12.334-8.064v-4.716c-3.431-.066-6.176-2.627-6.176-5.75z" fill="#4d4d4d"/><path d="M84.051 61.807c0-2.086-1.756-3.745-3.84-3.745h-.09c-2.085 0-3.79 1.66-3.79 3.745V66.4c0 2.084 1.705 3.84 3.79 3.84h.09c2.084 0 3.84-1.755 3.84-3.84v-4.594z" fill="#4d4d4d"/></svg>