<svg xmlns="http://www.w3.org/2000/svg" viewBox="0 0 763 841.21875"><g stroke="#000"><path d="M529.5 212.219l1 1h2l4-1h1l1 1 6 3v1l25 16h1l2-1h3l2-3v-1h-1v-1l-13-9-18-13h-1v-1l1-1v-1h2l1 1 5 1h1l1 1h1l1 1h7l18-2h3-2v1l2 2 1-1v-2h5v-1h1v1h2l9 7h1v1h1v2h1v2h5v1l9 6h1v1h1v1h1v3-2h-1v-1l-1-1h-1l-10-7v-1h-5v-4h-1v-1h-1l-5-4-4-2h-1v-1h-7v2l-1 1 5 3 4 3h1v2h-1l-20 2v1l4 3 2 1 1 1 6-1h4l12-1 2-1 1 1 5 3 3 2 4 3 6 4v2l-21 2-1 1h-1l10 7-4 7-4-3h-3l-11 1-12-8h-1l-1-1h-12v-1h-5l-2 1h-6l-2 3-4 6-1 3h1v1h1l1 1h1v1h1l1 1h1l1 1h1v1h1v1h1l1 1h1l1 1v1l2 1 2 2 1 1 1 2 1 1 1 1v1l1 1 1 2 1 2 1 1v1l1 3 2 1 1 1 1 1h-1l-4 6-4 4-4 5-4 4 2 6v8h1v12l1 5v5l-4 1h-13l-1 1h-32l-3-1h-6l-1-2h-1l-2-1-1-1h-1v-1l-3-2h-17l-2 1h-4l-6-1h-10l-4-1h-2l2-5 2-5 2-5v-3l4-4 2-4 2-2 1-1 4-6 4-6 2-4 2-2v-1l3-5 1-1v-1l2-3 2-3 3-5v-2h17l2 2h1v1l2 2 3-4 2-4 5-10 4-7 1-2 1-1h-1v-1l-4-3-3-2-2-1-3-2-3-2-2-2-2-2-2-3-1-1-1-1 1-1v-1l1-1 2-2 4-6v-1h1v-1l2-2v-1l1-1v-3l-1-1-1-2 3 2v1h1l1 1 2 1 12 8"/><path d="M460.5 410.219l1 6v20l1 5v6l2 5h-2l1 5v5l1 7v12l1 6v6l1 6 2 6v1l1 3 1 1-1 2v3l-1 3v2l-1 3-2 1h-2l-4 1-5 1-5 1h-1l-4 1h-1l-4 1h-1l-2 1h-2l-5 1-5 1-5 1-1-5-1-5-1-4v-2l-1-2v-3l-1-4-1-5-1-1v-4l-1-2v-3l-1-1v-5l-1-1v-4l-1-1v-4l-1-1v-5l-1-1v-4l-1-1v-4l-1-5v-1l-2-7v-4l-1-3v-5l-1-1v-5l-1-1v-4l-2-9v-1l-3 1v-6l-1-4v-14l-1-4v-11l-1-5-3-5-3-5-4-6h1l3-2v-1l2-1 2-4 1-1 3-4v-1l2-2 1-1h1l3-2 2-1h1l3-2h2l6-1h36l4 1h10l-1 6v5l-2 6v4l-1 4-1 4v1l-1 4-1 4-1 6v3l-3 1 1 3v9l2 4 2 4v1l1 1v3l1 3"/><path d="M392.5 377.219v11l1 4v14l1 4v6l3-1v1l2 9v4l1 1v5l1 1v5l1 3v4l2 7v1l1 5v4l1 1v4l1 1h-3l-3 1h-1l-5 1-5 1-5 1h-1l-5 1h-4l-3 1-6 1-5 1-4 1-9 1-4 1-6 1-6 1-2 1h-4l-3 1h-3l-1 1h-5l-4 1-1-4-1-1-2-5v-1l-1-2-2-5-2-5v-1l-2-5-1-2-1-3-2-5-2-5-2-6-3-6v-1l-2-5-1-4-2-3-2-6-1-4-1-1-1-4-2-5-3-5-2-6-2-5-2-5h1l1-1 2-2h1l4-4 3-2 1-1 2-2 2-1h1l6 2 3 1h1l2 1 4 1 4 1 2 1 2 1h2l1 1h2l2 1 3 1h1l8 3h3l2-1 2-1 4-1 5-1 5-2h1l4-2h1l3-1 3-2 2-1 3-2h1v-1h1l5-3 1-1h1l4-3 2-1 4 6 3 5 3 5 1 5"/><path d="M309.5 484.219l1 4 4-1h5l1-1h3l3-1h4l2-1 6-1 6-1 4-1 9-1 4-1 5-1 6-1 3-1h4l5-1h1l5-1 5-1 5-1h1l3-1h3v5l1 1v4l1 1v4l1 1v5l1 1v3l1 2v4l1 1 1 5 1 4v3l1 2v2l1 4 1 5 1 5-5 1h-1v1h-4l-3 1h-2l-1 1h-4l-2 1h-3l-1 1h-4l-1 1h-2l-1 1v11l1 5h-2l-4 2-5 3 1 1v1l3 3 3 3h1l1 1 2 2 5 5h1v1l-2 2-4 4-4 4-2 2-3 3-3 3-3 3-5 4-2 1-1 2-2-2-1-1-3-3-3-3-5-4v-1l-4-3-1-1v-1h-1v-2h-1v-1h-4l-1-1h-1l-11 1h-16l-4-1h-3l-4-1v6l-1 1-1 1v1h-1l-6 6v1l-2 2-2 1-1 2-1 1-1 1-1 1-2 2-2 2h-1v1l-2-2-1-1v-1h-1l-1-1-1-2h-1l-1-2-1-1-3-2-1-1-1-1-2-2-2-1-1-2-1-1h-1l-2-3h-1v-1l-1-1h-1v-1l1-1 2-3 2-2v-1h1v-1l1-2 4-5 2-3 2-3 1-4h-1l-1-1-2-2-3-2v-1h-1l-1-2h-1l-4-5h-1l-4-4-5-5v-1l-3-6v-1l-2-4v-1l-1-4-2-5-2-5-2-6-2-6-3-6-2-7-1-1-1-3-1-5-2-5-2-6-2-4-2-5v-1l-2-4-1-4 4-2 3-2 1-1 1-1 3-2 2-1 5-3 1-1 4-2v-1l4-2 3-2 1-1h1l2-1v-1l3-1 4-2 1-1 4-2 4-2h1l1-1 3-1 1-1 4-2 5-2h1l1-1 3-1 1 4 2 6 2 3 1 4 2 5v1l3 6 2 6 2 5 2 5 1 3 1 2 2 5v1l2 5 2 5 1 2v1l2 5 1 1"/><path d="M48.5 499.219h8l2 1h7l3 1h1l2 1 3 2 1 1h2l1 1 1 1 2 1 3 1 1 1h1l2 1 3 1 2 1h3l2 1 1 1 1 2h1l-15 2-4 1 1 3 1 5 1 4v1l2 2 5 4 4 4 5 5 4 4h1l2 2 2 2 2 2 2 2 4-2 4-3 4-2 4-2 4-3 2 2 1 1 3 4h2v-1h1l4-2 5-3 3-2 3-2h1l1-1 3-1v-1l3-2 3-1 1-1 3-1 4-2 2-2h1l1-1 1-1 3-1 4-2 4-3 1-1 3-1 2-1 1-1 6-3 1 1 2 3 4 3 2 1v1l3-2 4-3 3-2 5-2 4-1 2 5 1 4v1l2 4v1l3 6v1l5 5 4 4h1l4 5h1l1 2h1v1l3 2 2 2 1 1h1l-1 4-2 3-2 3-4 5-1 2v1h-1v1l-2 2-2 3-1 1v1h1l1 1v1h1l2 3h1l1 1 1 2 2 1 2 2 1 1 1 1 3 2 1 1 1 2h1l1 2 1 1h1v1l1 1 2 2-1 1-2 2-1 2h-1l-1 1-8 8-2 1-1-1v-1h-1v-1l-2-2h-1l-1-1-1-1-1-1-1-1-1-1-2-2-7 7v1l-1-1-1-1h-1l-1-1v-1l-1 2-2 6-3 7-2 6-2-2-2-2-2-2-1-1-2-2-1-1-2-2h-1l-4-5-3-2-1-1-1-1-1-1-1-1-2 1-1 1-1 1-1 1h-1l-1 1-1 1-2 2-4 2-3 3-4 3-3 3h-1l-1 1-1 1h-1l-4 2-3 1-4 1-1 1-4 5-3 4h-1l-2 2v1l-1 1-1 1-1 1-1 1-3 5h-1l-2 4-6 6v1l-5 5-1 1-2 1-2 2-1 1-1 1h-1l-2 2-2 1-1 1h-1l-4 3-1 1-2 1-22-20-2-2-1-1-12-11h-1l-4-4-18-17-1-1h-1l-1-2-4-4-13-11-6-6-4-4h-1l-11-11-1-1h-1l-2-52-1-18v-1l-1-14v-7h13v-1h5l5-1h1l3-1h1l3-1 5-1h1v-3l1-1h1v-1 1h4"/><path d="M168.5 439.219l4 4 4 4 4 4h1l3 4 3 2 3 3 3-2 4-2 4-2 2-1 2-1 2-2h1l1-1 1 4 2 4v1l2 5 2 4 2 6 2 5 1 5 1 3 1 1 2 7 3 6 2 6 2 6 2 5-4 1-5 2-3 2-4 3-3 2v-1l-2-1-4-3-2-3-1-1-6 3-1 1-2 1-3 1-1 1-4 3-4 2-3 1-1 1-1 1h-1l-2 2-4 2-3 1-1 1-3 1-3 2v1l-3 1-1 1h-1l-3 2-3 2-5 3-4 2h-1v1h-2l-3-4-1-1-2-2-4 3-4 2-4 2-4 3-4 2-2-2-2-2-2-2-2-2h-1l-4-4-5-5-4-4-5-4-2-2v-1l-1-4-1-5-1-3 4-1 15-2h-1l-1-2-1-1-2-1h-3l-2-1-3-1-2-1h-1l-1-1-3-1-2-1-1-1-1-1h-2l-1-1-3-2-2-1h-1l-3-1h-7l-2-1h-12v-1 1h-1l-1 1v3h-1l-5 1-3 1h-1l-3 1h-1l-5 1h-5v1h-13v-7l-2-27-3-57 2-5 6-17h1l1 2h1l1 1 1 1 2 2 2 1 1 1 2 2 2 2 1 1 1 1 1 1v-1l4 3v1l4 4 4 4 4 3 1 1 2 2 1 1 2 2h1l1 2 1 1h1l1 1 2 2 3 3 1-1 1-1 1-2 2-1 2-3h1l2-3 3-3 2-2 2-2 2-1 1-1 2-2h1l1-1h1v-1h1v-1h1l1-1 2-1 1-1 1-1h1v-1h1l1-1h1v-1l2-1 6-4 1-1 2-1 1-1 1-1h1v-1h1l1-1 1-1h1l2-2 1-1 3-2 5-3 3 4 4 5v1h1v1l2 3 1 1 3 4v1l4 4 3 3 4 4 4 4 4 5 4 3v1l5 4 4 4"/><path d="M129.5 326.219l5 3v-1h1l8 1 5 1h9l4 1h11v1h9l6 1 1 1h1l3 1 5 3 4 2 4 2h1l3 1 5 1-1 1-3 2 2 4 2 4 3 3v1l3 4 3 6 4-3 2-1 3-3h1l4-5h1l4-3 1-2h1l4 2h1l5 2h1l2 1h1l3 1 5 1 3 1 3 1 4 1 1 1h1l4 1 2 1-2 1-2 2-1 1-3 2-4 4h-1l-2 2-1 1h-1l2 5 2 5 2 6 3 5 2 5 1 4 1 1-3 1-1 1h-1l-5 2-4 2-1 1-3 1-1 1h-1l-4 2-4 2-1 1-4 2-3 1v1l-2 1h-1l-1 1-3 2-4 2v1l-4 2-1 1-5 3-2 1-3 2-1 1-1 1-3 2-4 2-1 1h-1l-2 2-2 1-2 1-4 2-4 2-3 2-3-3-3-2-3-4h-1l-4-4-4-4-4-4-4-4-5-4v-1l-4-3-4-5-4-4-4-4-3-3-4-4v-1l-3-4-1-1-2-3v-1h-1v-1l-4-5-3-4-5 3-3 2-1 1-2 2h-1l-1 1-1 1h-1v1h-1l-1 1-1 1-2 1-1 1-6 4-2 1v1h-1l-1 1h-1v1h-1l-1 1-1 1-2 1-1 1h-1v1h-1v1h-1l-1 1h-1l-2 2-1 1-2 1-2 2-2 2-3 3-2 3h-1l-2 3-2 1-1 2-1 1-1 1-3-3-2-2-1-1h-1l-1-1-1-2h-1l-2-2-1-1-2-2-1-1-4-3-4-4-4-4v-1l-4-3v1l-1-1-1-1-1-1-2-2-2-2-1-1-2-1-2-2-1-1-1-1h-1l-1-2h-1l7-17 6-16 10-27 1-1 30-78v-1h2l1 1 1 1 3 3v1l2 2v1l3 4 1 1 2 3 2 3 1 1 2 2 3 4 3 4 3 4 2 4 3 4 3 3 3 4v1l2 2 3 4 2 3 2 2h-2l1 1 1 1h1l4 1 4 2 2 1 1 1h1l5 2"/><path d="M110.5 315.219h-1l-2-3-3-4-2-2v-1l-3-4-3-3-3-4-2-4-3-4-3-4-3-4-2-2-1-1-2-3-2-3-1-1-3-4v-1l-2-2v-1l-3-3-1-1-1-1h-2l1-1 6-16 4-11 7-16 2-7 1-1 1-4v-1l2-4 12-31 2-5 3-9 12-29 2-6 3-7v-2l12-6 8-5 2-1h1l2-1 3-2 1-1h1l2-1 7-4 11-6 2-1 2-1h1l2-1 9-5 9-5 2-1 5-3h1l2-2 2-1h1l2-1 6-3 1 1v1l1 1 2 3 2 4 2 4 2 3 2 3 3 4 2 4 2 3 2 4 2 3 2 3 1 2 1 1v1l1 1 1 1 1 1-1 1-3 3-4 2-3 2-3 2-4 2-3 3-3 2 3 5 2 4 1 1 1 2 3 4 1 2 2 4 4 4 1 2 2 3 1 1 2 2 3 4 2 4-2 2 3 1 1 1-4 4-4 3-4 3-3 3h-1l-2 2-5 3-2 2-1 1 2 3 3 5 3 4 3 5 3 4 3 4 3 5-4 2-3 3-3 2-4 3h-1l-3 2v1l-3 1v1h-1l-3 2-1 1h-1l-2 2-6 4h-1l-1 2-2 1-2 1-1 1-1 1-4 2v1h-1l-2 1v1l-4 3-4 2-4 3-2 2-2 1-2 2h-1l-4 3-4 3-3 2h-1l-2 2-3 2-2 2-2 2-2 1-3 2-4 3-1 1-1 1-2 2-2 1-1 1-2 1-4 3-4 4-5 3-6 4-4 3-1 1-4 4m297-198l2-1 3 2 2 1h1l1 1 3 1h1l2 1v-1l1 1h1l4 2h2l1 1h3v1h3l1 1h3v1h3v1h2l1 1h2l1 1h1l1 1h1l1 1h1v1h2v1h1l1 1h1v1h1v1h1l1 1h1v1h1l1 1 1 1h2v-1l2-2h1v-1h1v1h1v2l-1 2-1 1h-1v2h1v1h1v1h1v1h1v1l1 1 1 1v1h1v1h1v1h1v2h1v1h1v1h1v2h1v1h1v1l1 1v1h1v1l1 1v1h1v1l1 1v1h1v1h1l1 1 3-2v-1h1v-1 1l3-2 1-1 2-1 4-3 2-2h1l-2 2-6 4-1 1-3 2-1 1h-1l-3 2v2l1 1 1 2 3-1h1v-1h1v-2h1v-1h3v-1h4v1h3l1 1h1l1 1 1 1h1v2h1v1h1v3h1v3h-1v2h-1v1h-1v1l-1 1v1h-1v1h-1v1l-1 1v1h-1v1h-1v2h1l1-2 1-1 1-1 1-1 1-1v-1h1v-1l1-1v-1h1l1-1v-1h2v1h2v1h1v1l1 1v1h1v2l1 1 1 1v3h2l3 5 4 9v1l-1-1h-1l-4 1h-2l-1-1-12-8-2-1-1-1h-1v-1l-3-2 1 2 1 1v3l-1 1v1l-2 2v1h-1v1l-4 6-2 2-1 1v1l-1 1 1 1 1 1 2 3 2 2 2 2 3 2 3 2 2 1 3 2 4 3v1h1l-1 1-1 2-4 7-5 10-2 4-3 4-2-2v-1h-1l-2-2h-17v2l-3 5-2 3-2 3v1l-1 1-3 5v1l-2 2-2 4-4 6-4 6-1 1-2 2-2 4-4 4v3l-2 5-2 5-2 5h-28l-1-1-5-2-5-2v-1l-3-1v-1l-5-3-4-3-3-2-1-1-2-1-2-2-4-4-4-3h-1l-2-2-1-1-4-3-2-2-1-1-4-3-3-2-1-1-1-1-3-3-3-2-4-3-1-1-4-3-4-3-5-4v-1l1-6 3-4 1-2 3-4 1-1 3-4 4-4 2-3-1-1-2-2-4-5-3-2v-1l-1-1-3-2-1-1 1-2 2-2 3-3 3-4 3-4-4-3-1-1-2-1-1-1-3-1-1-1-1-1-3-1-3-2-3-2-1-1h-1l-4-3-2-1-2-1 3-3 2-3 2-1 3-3 2-1 2-1 3-3 4-2 4-3 3-3 1-2 1-1v-1h3l4 1h4l3 1h9l2-2v-2h-2v1h-7l-2-1h-2l-1-1h-1l-1-1h-1l-1-1h-1v-1l-1-1-1-1h-1v-1l-1-1v-1h-1v-3h-1v-4l1-1v-1l1-1 1-1 1-1 1-1 1-1h1l2-1 1-1h2l1-1h1l1-1 1-1 1-1 1-1 1-1 1-1 1-1h1v-1h2l4-3-2-2v-1l1-1 4-3 4-3 1-1h1l1-1 2-1 1-1h6l2 1 1 1 4 2 2 1h1m57 217l6 1h4l2-1h17l3 2v1h1l1 1 2 1h1l1 2h6l3 1h27v6l1 5v1l1 4v11l1 1v17l1 5v22l1 1v3l-1 5v6l1 5v23l1 1v14h-4l-3 1-5 1-4 1-5 1h-1l-6 2h-5l-4 1h-2l-4 1h-5l-7 1h-1l-3 1h-1l-6 1-4 1h-1l-1 1h-3l-1 1-3 1-1-6v-12l-1-7v-5l-1-5h2l-2-5v-6l-1-5v-20l-1-6-1-3v-3l-1-1v-1l-2-4-2-4v-9l-1-3 3-1v-3l1-6 1-4 1-4v-1l1-4 1-4v-4l2-6v-5l1-6"/><path d="M409.5 328.219l5 2 5 2 1 1h-6l-6 1h-2l-3 2h-1l-2 1-3 2h-1l-1 1-2 2v1l-3 4-1 1-2 4-2 1v1l-3 2h-1l-2 1-4 3h-1l-1 1-5 3h-1v1h-1l-3 2-2 1-3 2-3 1h-1l-4 2h-1l-5 2-5 1-4 1-2 1-2 1h-3l-8-3h-1l-3-1-2-1h-2l-1-1h-2l-2-1-2-1-4-1-4-1-2-1h-1l-3-1-6-2h-1l-2-1-4-1h-1l-1-1-4-1-3-1-3-1-5-1-3-1h-1l-2-1h-1l-5-2h-1l-4-2h-1l-1 2-4 3h-1l-4 5h-1l-3 3-2 1-4 3-3-6-3-4v-1l-3-3-2-4-2-4 3-2 1-1-5-1-3-1h-1l-4-2-4-2-5-3-3-1h-1l-1-1-6-1h-9v-1h-11l-4-1h-9l-5-1-8-1h-1v1l-5-3-5-2h-1l-1-1-2-1-4-2-4-1h-1l-1-1-1-1h2l-2-2h1l4-4 1-1 4-3 6-4 5-3 4-4 4-3 2-1 1-1 2-1 2-2 1-1 1-1 4-3 3-2 2-1 2-2 2-2 3-2 2-2h1l3-2 4-3 4-3h1l2-2 2-1 2-2 4-3 4-2 4-3v-1l2-1h1v-1l4-2 1-1 1-1 2-1 2-1 1-2h1l6-4 2-2h1l1-1 3-2h1v-1l3-1v-1l3-2h1l4-3 3-2 3-3 4-2 3-2 5 4 4 3 7 5 3 4 1 1 2 3 4 5h1l1 2h6l3 1h3l4 2 3 1 2 1 5 2h2l3 2h1l3 1h1l1 1 2 1 2 1h1l1 1 2 1h1l1 1 4 2 3 2h2l4 3h1l-1 6v1l5 4 4 3 4 3 1 1 4 3 3 2 3 3 1 1 1 1 3 2 4 3 1 1 2 2 4 3 1 1 2 2h1l4 3 4 4 2 2 2 1 1 1 3 2 4 3 5 3v1l3 1v1m-89 257h5l11-1h1l1 1h4v1h1v2h1v1l1 1 4 3v1l5 4 3 3 3 3 1 1 2 2 1-2 2-1 5-4 3-3 3-3 5 5 4 3v1l3 2 1 1h1v1l4 3v1h1l2 2 1 1 3 2v1h1l1 2h1l1 1 2 2v1l2 4 3 4 1 2 2 2 1 1-3 3-1 1-3 2-2 3-2 2-2 3-2 2-2 4h-1l-2 4-3 5-3 3-3 5-3 4-1 1v1l-1 1-2 2-1 2-1 1-3 5-2 4-3 3-13 19-2 3-1 1h-2l-1 1h-2l-1 1-1 1-2 2 1 5v2l-8 12h-1v1l-26 38-27 38-3 5-7 10-1 1h-1v1l-2 2v1-1h-1l-1-1-1-1-6-6-31-28-2-2-6-5-31-29-3-3-2-2-2-2-1-1-2-2-3-2-1-1-3-3-2-2-1-1-6-5-5-4-5-5v-1l-7-6-7-6-14-13-1-1-14-13 2-1 1-1 4-3h1l1-1 2-1 2-2h1l1-1 1-1 2-2 2-1 1-1 5-5v-1l6-6 2-4h1l3-5 1-1 1-1 1-1 1-1v-1l2-2h1l3-4 4-5 1-1 4-1 3-1 4-2h1l1-1 1-1h1l3-3 4-3 3-3 4-2 2-2 1-1 1-1h1l1-1 1-1 1-1 2-1 1 1 1 1 1 1 1 1 3 2 4 5h1l2 2 1 1 2 2 1 1 2 2 2 2 2 2 2-6 3-7 2-6 1-2v1l1 1h1l1 1 1 1v-1l7-7 2 2 1 1 1 1 1 1 1 1 1 1h1l2 2v1h1v1l1 1 2-1 8-8 1-1h1l1-2 2-2 1-1v-1h1l2-2 2-2 1-1 1-1 1-1 1-2 2-1 2-2v-1l6-6h1v-1l1-1 1-1v-6l4 1h3l4 1h11"/><path d="M684.5 435.219v1h4v1l1-1 1-1 2 1 1 1h1v-1h4v-2 1h1l2 1v1-1l2 1h3l2-1 3-2 1-1h3l2 1h1l2-1h5v3l-2 1-1 1-2-2-1-1-1-1-1 1-1 1-1 2v3l1 2 1 2 1 1v4h1v2h1v-3h-1v-1h1-1v-1h1v1l1-1v-1l1-1 1-1h1l1 1h1l1 1v-1h-1v-6l1-1v-3h1v-1h1v-1h2v-1l1-1h7l2 1h1l1-1h3l1 1 1 1h1l1 1v3l1 1v2l1 2v1l1 1v1l1 1v5h-1v1h-3l-2-1h-11v1h-1l-1-1v-1h1l-1-1h-2l-1 1h-1v1l3 3v2h1v-3h5l2 1 5 5 2 1h1l1 1h3l2 2 2 2h1v1l3 3v3l-3 2-2 2 1 1h-1v-1l-3 1 1 1-5 1h-3l1 1h-2v-1h-1v-1l-1-3-2 1-1-1h-1v-1l-1-1h-1v-1l-1-1h-1v-1l-1-1h-1v-1l-1-1h-1v1h-2l-1 1v-1h-3v1l2 2v-1l1 1h-1l2 2v-1l1 1h-1l2 2v-1l1 1h-1l2 2v-1l1 1h-1l2 2v-1l1 1h-1l1 1v1h-1v1h-2v1h-1v-1l-1 1-2-2v1-1l-2-1v-1l-1-1h-1v-1l-1-1-2 2-1-1-4-5-1 1 5 6-4-4-3-2-2 2-4 4 1 1h-1v2l1 1v2h2v1h-1v3l1 1v1l1-1v2h4l2 1-4 2h-2v3-1h-1v-1 1h-4v1l-4-2-4-3v-1l-1-1v-1l-2-4-1-3h1v-1h-2v-1h-3l-1-2-2-2-1-1-1-1-5-4-6-5-5-3-8-6-1 1-3-2h-1l3 3-1 1h1l1 2 19 15h1v1h1v1h1v1h1v1h1v2h1v1h1v2h1v3h1v3l1 2 1 5h1v4l-1 3-1 4-1 2v1l-2 3-7 5-1 1-2 2-1 2-4 3h-9l-3 1-1 2 2 4 9 4 1 1 2 5 1 3v1l1 2-1 2-1 2-1 1-3 1-4 3-4 4-2 2-1 2v1h-1l-2 1h-6l-2 1-1 1-2 1-2 2-2 1-5 3h-1l-3 3-2 2-2 1-1 2-1 2 2 5-1 2-2 2-4 2h-1l-3 2-4 6-2 3-5 1h-1l-2-1v1h-6v1h-5l-1 1v-1 1h-8v-1 1h-15v1h-1v1h-2v1l-2 1v1h-1v2h-1v1h-1v1l-1 1v1h-1v1h-1v1h-1v1h-1l-1 1h-1l-1 1v-1h-1v1h-2v1h-2l-1 1-2 1-1 1-1 1-1 1-1 1h-3l-1 1h-2v-1h-4v-1h-2v-1h-4l-1 1h-1l-1-1h-1l-1-1v-2l-6-2h-1v1h-2v-1h-2v-2h-1v-1l-1-1-1-1h-1l-1-1h-1v-1h-9v1h-2v1h-4v1h-6l-2-1h-2l-1-1h-1l-1-1h-1l-1-1v-1h-3v-1 1-1h-4v-1h-9v1h-3l-1 1h-3v1h-4l-5 2-5 2-3 1-3 1h-1l-2 2-3 1-3 2-2 2h-1l-1-1-2-2-1-2-3-4-2-4v-1l-2-2-1-1h-1l-1-2h-1v-1l-3-2-1-1-2-2h-1v-1l-4-3v-1h-1l-1-1-3-2v-1l-4-3-5-5 3-3 2-2 4-4 4-4 2-2v-1h-1l-5-5-2-2-1-1h-1l-3-3-3-3v-1l-1-1 5-3 4-2h2l-1-5v-11l1-1h2l1-1h4l1-1h3l2-1h4l1-1h2l3-1h4v-1h1l5-1 5-1 5-1 5-1h2l2-1h1l4-1h1l4-1h1l5-1 5-1 4-1h2l2-1 1-3v-2l1-3v-3l1-2-1-1-1-3v-1l-2-6-1-6v-6l3-1 1-1h3l1-1h1l4-1 6-1h1l3-1h1l7-1h5l4-1h2l4-1h5l6-2h1l5-1 4-1 5-1 3-1h4l1 5v6l1 5v4l1 5v1l1 7 3-1 3-1h1l3-1 2-1 2-1 5-1 5-2 3-1 3-3 3-2 1-2h1v11h4v-2l2-2h1v-1l1-3 2-4-1-5-1-1 2-1 3-2 1-1 4-3 4-2 4-3h11l2-1h1v7l1 4v3l1-1 3-4 1-1 5-5v-9h6l12-1h2v-1l1-1 2-2 1-1v-2h1l1-2 2-3 2-2 1-1 3-4 1-1 1-1 2-3 2-2 1-2 1-2 2-1 1-2 1-1 1-1 1 2 1 4 1 2m-52-216h2v1h2v1h1l8 6 16 11 11 7v1h1v2l4 21 1 4 3 17 1 9 1 5v2h1v2h1v1h1-1v-1h-1v-1h-1v-3l-3-14-3-21-4-21v-2h-1v-1h-2v-1l-25-17-3-2-5-4h-1v-1h-7v1h-1v-1h3v-1h1"/><path d="M610.5 243.219l24-2h1l9 7h1v2l-21 2v1h1l3 2v1h1l1 1h1l14-1 10-1 3 2 5 4 1 2h-1l-7 1-11 1h-3v1l2 2v1l1 1h1v1l17-2h3l1 8h-1l-2 1-13 1v3l1 2v1l15-2v1l1 3h-1v1h-1v1h-2l-2 1 1 1h-1v1-2h-2l-7 2h-1l-7 2h-2l-9 3 1 1v1l1 1h1v-1 1h3v1l1 1 2 3v1l2 5h1l2 5v2h-1v-1h-1v-1l-1-1-1-2-1-2v-1h-2v1h-2v1h-1v-1 1h-1l-2 2h-1l-4 2 1 4v1h1v2l3 9h5v1l1 1h1v-1l-1-1v-1h10v-1l-3-7v-1h2l2 6h3l1-1 2-1 3-2h1l2-1v-3h7l17-1 12 2v1l-3-1-9-2-11 1-1 1h2l1 1h3l1 1h1v1l1 1h2v1h1l1 1 1 1h1v1l1 1 1 2 1 1 1 1h1l1 1v1l1 1 1 1 1 1h1l1 1 1 1v1l1 1 1 1 1 1h1l2 3h2l1 1 1 1h1v1h1v1h1v3h1v6l1 1v4h1v7l1 2 1 1v1l2 1 1 1 1 1 2 1 2 2 1 1 1 1 1 1 1 1 1 1h1l1 2h1l1 1v1l1 2v1l1 1v1l1 3v3l1 1v2l1 2v13h-1l-1 2-1 1h-9l-1 1h-3l-1 1h-9 1-3 1-1v-1h-2v-1h-5v-1h-1v1h-2v1h-2v1l-1 1v2h-1v1l2-1v1h1v-1l1 1-1 1v1h-2v-1h-1v1h1v1h1-1v1h-1l-1 1h-2v-1 2h-4v1h-1l-1-1-2-1-1 1-1 1v-1h-4v-1l-1-2-1-4-1-2-1 1-1 1-1 2-2 1-1 2-1 2-2 2-2 3-1 1-1 1-3 4-1 1-2 2-2 3-1 2h-1v2l-1 1-2 2-1 1v1h-2l-12 1h-6v9l-5 5-1 1-3 4-1 1v-3l-1-4v-7h-1l-2 1h-11l-4 3-4 2-4 3-1 1-3 2-2 1 1 1 1 5-2 4-1 3v1h-1l-2 2v2h-4v-11h-1l-1 2-3 2-3 3-3 1-5 2-5 1-2 1-2 1-3 1h-1l-3 1-3 1-1-7v-1l-1-5v-4l-1-5v-6l-1-5v-14l-1-1v-23l-1-5v-6l1-5v-3l-1-1v-22l-1-5v-17l-1-1v-11l-1-4v-1l-1-5v-6h5l1-1h13l4-1v-5l-1-5v-12h-1v-8l-2-6 4-4 4-5 4-4 4-6h1l-1-1-1-1-2-1-1-3v-1l-1-1-1-2-1-2-1-1v-1l-1-1-1-1-1-2-1-1-2-2-2-1v-1l-1-1h-1l-1-1h-1v-1h-1v-1h-1l-1-1h-1l-1-1h-1v-1h-1l-1-1h-1v-1h-1l1-3 4-6 2-3h6l2-1h5v1h12l1 1h1l12 8 11-1h3l4 3 4-7-10-7h1l1-1v2l3 1 4 3m-319-241h2v1l1 1v1h-1v1l1 1 1 1h1l1 1h1v1l1 1v1h2v2l1 1v1l1 1v3h-1v1l-1 1h-1v1h-1v1h-1v1h-1v1h-1v1h-1l-1 1v1l1 1 1 1v1h1v6l-2 1-5 3-7 4-1 1h2l8-4 2-1 2-2h1l2-1 1-1 1-1h1v-4h1l1-1v-1l2-2v-1h1v-1l1-1v-1h1v-1l1-1v-1h-1l1-1v-1l1 1 1 1v1l1 2h1v5l1 1v2h1v5l-1 1h-2l-1 1h-1l-1-1v1h-6v1h-1l-1 1-2 2-1 2v1h-1v4h-1l1 1v-1l1 1 1 1v1l1 1h1l2 2 2 1h2l1-2v-1l1-1 1-1h1v-2h2l1-1 1-1 1-1v-4l-1-2 2-1v-1l2-1h1v2h-1l-1 1v1l2 3v3h-1v2-1l1-1v-1h1l2 2 5 3h1l1 1 2 2h1l3 2 2 2 4 2v1h1l1 1h1l2 2v-1h-1v-1h-1v-1h-1v-2h-2v-1h-1v-2l-1-1v-1h-1v-1h-1v-1h-2v-1h-2v-1h-1v-1h-1v-1h-1v-1h-1l-1 1h-1v-1h-1v-2h-4v1-2h1v-1h1v-1h1v-1h1v-1h8l1 1h3v1h2l1 1h1v1h1v1h1v1l1 1h1v1l1 1v1h1v2h1v1l1 1v6h1v-1l1 1v-3l2 2 1 1h1l1-1 1-1h1v1l1-1h5v1h1l1 1h1l1 1 1 1v2h1v2h1v3l1 1h-1 1l1 1h2l1 1h2v1h1l1 1h1v1h1v1h1v1h1v1h1v1h1v2h1v2h1v3l1 1v5l2-1v-1h1v4l-1 1h-1 1l-2-2v3h1v1h1v2h1v1h1v1h1v1h2v-1 1h2l1-1h1v1h1v2l1 1v-1h2l1-1h1l1 1v1h1v1l-4 8v1h-1l-2-1-4-2-1-1-2-1h-6l-1 1-2 1-1 1h-1l-1 1-4 3-4 3-1 1v1l2 2-4 3h-2v1h-1l-1 1-1 1-1 1-1 1-1 1-1 1-1 1h-1l-1 1h-2l-1 1-2 1h-1l-1 1-1 1-1 1-1 1-1 1v1l-1 1v4h1v3h1v1l1 1v1h1l1 1 1 1v1h1l1 1h1l1 1h1l1 1h2l2 1h7v-1h2v2l-2 2h-9l-3-1h-4l-4-1h-3v1l-1 1-1 2-3 3-4 3-4 2-3 3-2 1-2 1-3 3-2 1-2 3-3 3 2 1 2 1 4 3h1l1 1 3 2 3 2 3 1 1 1 1 1 3 1 1 1 2 1 1 1 4 3-3 4-3 4-3 3-2 2-1 2 1 1 3 2 1 1v1l3 2 4 5 2 2 1 1-2 3-4 4-3 4-1 1-3 4-1 2-3 4h-1l-4-3h-2l-3-2-4-2-1-1h-1l-2-1-1-1h-1l-2-1-2-1-1-1h-1l-3-1h-1l-3-2h-2l-5-2-2-1-3-1-4-2h-3l-3-1h-6l-1-2h-1l-4-5-2-3-1-1-3-4-7-5-4-3-5-4-3 2-3-5-3-4-3-4-3-5-3-4-3-5-2-3 1-1 2-2 5-3 2-2h1l3-3 4-3 4-3 4-4-1-1-3-1 2-2-2-4-3-4-2-2-1-1-2-3-1-2-4-4-2-4-1-2-3-4-1-2-1-1-2-4-3-5 3-2 3-3 4-2 3-2 3-2 4-2 3-3 1-1-1-1-1-1-1-1v-1l-1-1-1-2-2-3-2-3-2-4-2-3-2-4-3-4-2-3-2-3-2-4-2-4-2-3-1-1v-1l-1-1 3-2 2-1h1v-1h1l3-2 9-4 12-7 1-1h2l2-2h1l2-1 3-2 4-2 1-1 2-3 8-11 1-1 4-6 4-5h8v-1l1 1"/></g></svg>