<?xml version="1.0" encoding="utf-8"?>
<!-- Generator: Adobe Illustrator 16.0.0, SVG Export Plug-In . SVG Version: 6.00 Build 0)  -->
<!DOCTYPE svg PUBLIC "-//W3C//DTD SVG 1.1//EN" "http://www.w3.org/Graphics/SVG/1.1/DTD/svg11.dtd">
<svg version="1.1" id="Layer_1" xmlns="http://www.w3.org/2000/svg" xmlns:xlink="http://www.w3.org/1999/xlink" x="0px" y="0px"
	 width="100px" height="100px" viewBox="0 0 100 100" enable-background="new 0 0 100 100" xml:space="preserve">
<path d="M75.68,16.767H61.984v-2.21c0-1.188-0.546-2.187-1.776-2.187h-6.203c-0.605-1.693-2.207-2.912-4.109-2.912
	c-1.901,0-3.504,1.219-4.109,2.912H39.99c-1.229,0-2.185,0.957-2.185,2.187v2.21H25.135c-3.072,0-5.463,2.391-5.463,5.465v63.405
	c0,3.074,2.391,5.465,5.463,5.465h49.52c3.074,0,5.465-2.391,5.465-5.465V22.231C80.119,19.265,78.754,16.767,75.68,16.767z
	 M26.604,33.638h23.291v3H26.604V33.638z M61.105,69.305H26.604v-3h34.501V69.305z M61.105,57.805H26.604v-3.001h34.501V57.805z
	 M61.105,47.221H26.604v-3h34.501V47.221z"/>
</svg>
