<svg xmlns="http://www.w3.org/2000/svg" viewBox="0 0 100 100"><path d="M83.923 51.732H16.062c-.032.358-.032.717-.032 1.092 0 18.751 15.21 33.977 33.978 33.977 18.767 0 33.962-15.21 33.962-33.977-.016-.375-.016-.734-.047-1.092zm-63.447 2.2h13.136c.156 5.6 1.31 10.873 3.292 15.63-2.777 1.077-5.351 2.528-7.738 4.228a29.384 29.384 0 0 1-8.69-19.859zm10.328 21.34c2.168-1.497 4.493-2.76 6.989-3.712a38.51 38.51 0 0 0 7.348 10.42 29.568 29.568 0 0 1-14.337-6.708zM48.9 82.355h-.109c-3.635-3.042-6.693-6.973-8.939-11.544 2.87-.89 5.913-1.389 9.048-1.498v13.042zm0-15.241c-3.447.109-6.786.67-9.937 1.684-1.888-4.524-3.011-9.547-3.167-14.882H48.9v13.198zm2.184-13.183h13.104c-.14 5.32-1.248 10.359-3.15 14.883-3.152-1.014-6.49-1.576-9.954-1.685V53.931zm.125 28.424h-.125V69.313c3.151.11 6.178.593 9.064 1.498-2.246 4.57-5.304 8.518-8.939 11.544zm3.635-.374c2.948-2.933 5.444-6.459 7.363-10.421 2.496.951 4.82 2.215 6.99 3.712-3.995 3.433-8.924 5.788-14.353 6.709zm16.006-8.19c-2.387-1.701-4.961-3.152-7.754-4.228 1.997-4.758 3.167-10.047 3.292-15.647H79.54a29.604 29.604 0 0 1-8.69 19.874zM59.072 17.753V13.2h-18.16v4.555h-4.726v32.028h11.123v-4.727h5.366v4.727h11.123V17.754h-4.726zm-14.4 8.674h-4.305v-4.306h4.306v4.306zm0 14.96h-4.305v-4.305h4.306v4.306zm0-7.472h-4.305V29.61h4.306v4.306zm7.473 7.473h-4.306v-4.306h4.306v4.306zm0-7.473h-4.306V29.61h4.306v4.306zm0-7.488h-4.306v-4.306h4.306v4.306zm7.473 14.96h-4.306v-4.305h4.306v4.306zm0-7.472h-4.306V29.61h4.306v4.306zm0-7.488h-4.306v-4.306h4.306v4.306zm-43.588.328v23.026h16.833V26.756H16.03zm7.13 14.227h-4.306v-4.306h4.306v4.306zm0-6.786h-4.306V29.89h4.306v4.306zm6.926 6.786h-4.305v-4.306h4.305v4.306zm0-6.786h-4.305V29.89h4.305v4.306zm37.035-7.441v23.026h16.833V26.756H67.121zm7.145 14.227h-4.305v-4.306h4.305v4.306zm0-6.786h-4.305V29.89h4.305v4.306zm6.911 6.786h-4.306v-4.306h4.306v4.306zm0-6.786h-4.306V29.89h4.306v4.306z" fill="#4d4d4d"/></svg>