<?xml version="1.0" encoding="utf-8"?>
<!-- Generator: Adobe Illustrator 16.0.0, SVG Export Plug-In . SVG Version: 6.00 Build 0)  -->
<!DOCTYPE svg PUBLIC "-//W3C//DTD SVG 1.1//EN" "http://www.w3.org/Graphics/SVG/1.1/DTD/svg11.dtd">
<svg version="1.1" id="Layer_1" xmlns="http://www.w3.org/2000/svg" xmlns:xlink="http://www.w3.org/1999/xlink" x="0px" y="0px"
	 width="100.25px" height="100.25px" viewBox="0 0 100.25 100.25" enable-background="new 0 0 100.25 100.25" xml:space="preserve">
<path d="M207.736,33.471h-8.371c-0.818-2.32-3.02-4-5.629-4s-4.811,1.68-5.631,4h-8.369c-2.211,0-4,1.79-4,4v28c0,2.211,1.789,4,4,4
	h28c2.209,0,4-1.789,4-4v-28C211.736,35.261,209.945,33.471,207.736,33.471z M193.736,33.471c1.1,0,2,0.89,2,2s-0.9,2-2,2
	s-2-0.89-2-2S192.637,33.471,193.736,33.471z M197.736,61.471h-14v-4h14V61.471z M203.736,53.471h-20v-4h20V53.471z M203.736,45.471
	h-20v-4h20V45.471z"/>
<path d="M64.716,34.965h-32c-2.209,0-3.98,1.79-3.98,4l-0.02,24c0,2.211,1.791,4,4,4h32c2.211,0,4-1.789,4-4v-24
	C68.716,36.755,66.927,34.965,64.716,34.965z M64.716,62.965h-32v-12h32V62.965z M64.716,42.965h-32v-4h32V42.965z"/>
</svg>
