<?xml version="1.0" encoding="utf-8"?>
<!-- Generator: Adobe Illustrator 16.0.0, SVG Export Plug-In . SVG Version: 6.00 Build 0)  -->
<!DOCTYPE svg PUBLIC "-//W3C//DTD SVG 1.1//EN" "http://www.w3.org/Graphics/SVG/1.1/DTD/svg11.dtd">
<svg version="1.1" id="Layer_1" xmlns="http://www.w3.org/2000/svg" xmlns:xlink="http://www.w3.org/1999/xlink" x="0px" y="0px"
	 width="100.25px" height="100.25px" viewBox="0 0 100.25 100.25" enable-background="new 0 0 100.25 100.25" xml:space="preserve">
<g>
	<g>
		<path d="M77.994,24.858H60.186c-5.801,0-8.662,1.353-10.094,2.784c-1.355-1.432-4.214-2.784-10.097-2.784H22.19
			c-0.875,0-1.315,0.659-1.315,1.531v42.212c0,0.872,0.52,1.838,1.315,1.838h0.162h9.457h8.186c3.737,0,7.553,1.241,7.553,1.479l0,0
			c0.795,0.556,0.795,0.204,1.511,0.204h2.063c0.798,0,0.798,0.352,1.515-0.364c0.161-0.237,3.975-1.319,7.469-1.319h8.271h9.457
			h0.159c0.872,0,1.12-1.045,1.12-1.838V26.389C79.113,25.517,78.866,24.858,77.994,24.858z M47.882,30.443v38.633
			c0,0-3.355-2.017-7.807-2.017c-1.11,0-16.673,0-16.673,0V27.39c0,0,15.637,0,16.673,0C48.658,27.39,47.882,30.443,47.882,30.443z"
			/>
		<rect x="28.89" y="46.664" width="13.506" height="1.688"/>
		<rect x="28.89" y="42.249" width="13.506" height="1.688"/>
		<rect x="28.89" y="51.079" width="13.506" height="1.688"/>
		<rect x="28.89" y="55.489" width="13.506" height="1.688"/>
	</g>
</g>
</svg>
