<?xml version="1.0" encoding="utf-8"?>
<!-- Generator: Adobe Illustrator 16.0.0, SVG Export Plug-In . SVG Version: 6.00 Build 0)  -->
<!DOCTYPE svg PUBLIC "-//W3C//DTD SVG 1.1//EN" "http://www.w3.org/Graphics/SVG/1.1/DTD/svg11.dtd">
<svg version="1.1" id="Layer_1" xmlns="http://www.w3.org/2000/svg" xmlns:xlink="http://www.w3.org/1999/xlink" x="0px" y="0px"
	 width="100.25px" height="100.25px" viewBox="0 0 100.25 100.25" enable-background="new 0 0 100.25 100.25" xml:space="preserve">
<g>
	<g>
		<path d="M24.264,75.31h14.271v-5.709H24.264V75.31z M42.816,75.31h14.271v-5.709H42.816V75.31z M61.368,75.31h14.271v-5.709
			H61.368V75.31z M24.264,63.893h22.833v-5.709H24.264V63.893z M52.806,63.893h22.833v-5.709H52.806V63.893z M24.264,41.059v11.417
			h51.375V41.059H24.264z"/>
	</g>
</g>
<g>
	<path d="M43.598,24.353v9.883c0,0.777,0.628,1.412,1.412,1.412h9.883c0.776,0,1.412-0.635,1.412-1.412v-9.883
		c0-0.776-0.636-1.412-1.412-1.412H45.01C44.226,22.94,43.598,23.576,43.598,24.353z M52.068,27.176
		c0,1.172-0.945,2.118-2.117,2.118c-1.173,0-2.118-0.945-2.118-2.118c0-1.172,0.945-2.118,2.118-2.118
		C51.123,25.059,52.068,26.004,52.068,27.176z M45.715,32.824c0-1.412,2.824-2.188,4.236-2.188c1.411,0,4.235,0.776,4.235,2.188
		v0.706h-8.471V32.824z"/>
</g>
</svg>
