<?xml version="1.0" encoding="utf-8"?>
<!-- Generator: Adobe Illustrator 16.0.0, SVG Export Plug-In . SVG Version: 6.00 Build 0)  -->
<!DOCTYPE svg PUBLIC "-//W3C//DTD SVG 1.1//EN" "http://www.w3.org/Graphics/SVG/1.1/DTD/svg11.dtd">
<svg version="1.1" id="Layer_1" xmlns="http://www.w3.org/2000/svg" xmlns:xlink="http://www.w3.org/1999/xlink" x="0px" y="0px"
	 width="100.25px" height="100.25px" viewBox="0 0 100.25 100.25" enable-background="new 0 0 100.25 100.25" xml:space="preserve">
<g>
	<g>
		<path d="M49.116,36.167c2.317,0,4.186-1.883,4.186-4.2s-1.868-4.2-4.186-4.2c-2.317,0-4.2,1.882-4.2,4.2
			S46.799,36.167,49.116,36.167z M49.116,38.966c-3.269,0-9.8,1.638-9.8,4.9v3.5h19.6v-3.5
			C58.916,40.604,52.385,38.966,49.116,38.966z"/>
	</g>
	<g>
		<path d="M29.516,55.767c2.317,0,4.186-1.883,4.186-4.2s-1.869-4.2-4.186-4.2c-2.316,0-4.2,1.883-4.2,4.2
			S27.2,55.767,29.516,55.767z M29.516,58.565c-3.269,0-9.8,1.639-9.8,4.9v3.5h19.6v-3.5C39.316,60.204,32.785,58.565,29.516,58.565
			z"/>
	</g>
	<g>
		<path d="M68.717,55.767c2.317,0,4.186-1.883,4.186-4.2s-1.868-4.2-4.186-4.2s-4.199,1.883-4.199,4.2S66.399,55.767,68.717,55.767z
			 M68.717,58.565c-3.269,0-9.8,1.639-9.8,4.9v3.5h19.599v-3.5C78.516,60.204,71.985,58.565,68.717,58.565z"/>
	</g>
</g>
</svg>
