<?xml version="1.0" encoding="utf-8"?>
<!-- Generator: Adobe Illustrator 16.0.0, SVG Export Plug-In . SVG Version: 6.00 Build 0)  -->
<!DOCTYPE svg PUBLIC "-//W3C//DTD SVG 1.1//EN" "http://www.w3.org/Graphics/SVG/1.1/DTD/svg11.dtd">
<svg version="1.1" id="Layer_1" xmlns="http://www.w3.org/2000/svg" xmlns:xlink="http://www.w3.org/1999/xlink" x="0px" y="0px"
	 width="100.25px" height="100.25px" viewBox="0 0 100.25 100.25" enable-background="new 0 0 100.25 100.25" xml:space="preserve">
<path d="M207.736,33.471h-8.371c-0.818-2.32-3.02-4-5.629-4s-4.811,1.68-5.631,4h-8.369c-2.211,0-4,1.79-4,4v28c0,2.211,1.789,4,4,4
	h28c2.209,0,4-1.789,4-4v-28C211.736,35.261,209.945,33.471,207.736,33.471z M193.736,33.471c1.1,0,2,0.89,2,2s-0.9,2-2,2
	s-2-0.89-2-2S192.637,33.471,193.736,33.471z M197.736,61.471h-14v-4h14V61.471z M203.736,53.471h-20v-4h20V53.471z M203.736,45.471
	h-20v-4h20V45.471z"/>
<g>
	<path d="M63.02,33.112h-9.926c-1.371,0-2.481,1.11-2.481,2.481v2.481H65.5v-2.481C65.5,34.223,64.39,33.112,63.02,33.112z"/>
	<path d="M50.612,60.406c0,1.371,1.11,2.482,2.481,2.482h9.926c1.37,0,2.48-1.111,2.48-2.482v-2.481H50.612V60.406z"/>
	<rect x="50.612" y="40.556" width="14.888" height="14.889"/>
	<path d="M34.231,40.556c-1.371,0-2.481,1.111-2.481,2.482v9.925c0,1.371,1.11,2.481,2.481,2.481s2.481-1.11,2.481-2.481h10.64
		v-9.925h-10.64C36.712,41.667,35.602,40.556,34.231,40.556z"/>
</g>
<polygon points="50.612,65.989 50.612,68.471 50.612,70.952 65.5,70.952 65.5,68.471 65.5,65.989 "/>
</svg>
