<?xml version="1.0" encoding="utf-8"?>
<!-- Generator: Adobe Illustrator 16.0.0, SVG Export Plug-In . SVG Version: 6.00 Build 0)  -->
<!DOCTYPE svg PUBLIC "-//W3C//DTD SVG 1.1//EN" "http://www.w3.org/Graphics/SVG/1.1/DTD/svg11.dtd">
<svg version="1.1" id="Layer_1" xmlns="http://www.w3.org/2000/svg" xmlns:xlink="http://www.w3.org/1999/xlink" x="0px" y="0px"
	 width="100.25px" height="100.25px" viewBox="0 0 100.25 100.25" enable-background="new 0 0 100.25 100.25" xml:space="preserve">
<g>
	<g>
		<path d="M87.989,50.229c-0.557,0-1.105,0.125-1.631,0.374c-0.153,0.072-15.308,7.212-19.219,8.865
			c-0.898,2.179-3.036,3.708-5.525,3.708h-23.92v-1.709h23.92c2.202,0,3.997-1.68,4.227-3.819c-0.202-1.693-1.631-3.016-3.378-3.016
			h-9.957l-17.38-3.417c-5.324,0-7.797,1.27-11.54,3.192c-1.765,0.905-3.766,1.929-6.39,3.001v18.33
			c5.1-1.374,10.896-2.13,17.071-2.165l0.995-0.002c6.456,0,9.992,0.38,14.552,1.562c2.079,0.536,4.117,0.335,6.353-0.635
			c8.788-3.817,23.326-12.434,31.758-17.301c2.477-1.431,3.651-3.171,3.22-4.778C90.804,51.15,89.476,50.229,87.989,50.229z"/>
		<rect x="8.654" y="56.633" width="6.834" height="19.921"/>
	</g>
	<path d="M49.941,23.697c-7.226,0-13.084,5.858-13.084,13.085s5.858,13.085,13.084,13.085c7.228,0,13.086-5.858,13.086-13.085
		S57.169,23.697,49.941,23.697z M52.923,31.566c1.233,0,2.228,1.002,2.228,2.235s-0.994,2.235-2.228,2.235s-2.235-1.002-2.235-2.235
		S51.689,31.566,52.923,31.566z M46.962,31.566c1.232,0,2.228,1.002,2.228,2.235s-0.995,2.235-2.228,2.235
		c-1.233,0-2.235-1.002-2.235-2.235S45.729,31.566,46.962,31.566z M51.5,42.5h-11v-2.364c0-1.736,3.76-2.607,5.5-2.607
		c1.739,0,5.5,0.871,5.5,2.607V42.5z M56.5,42.5h-3v-2.364c0-1.107-0.514-1.945-1.379-2.568c0.26-0.025-0.275-0.039-0.059-0.039
		c1.739,0,4.438,0.871,4.438,2.607V42.5z"/>
</g>
</svg>
