<?xml version="1.0" encoding="utf-8"?>
<!-- Generator: Adobe Illustrator 16.0.0, SVG Export Plug-In . SVG Version: 6.00 Build 0)  -->
<!DOCTYPE svg PUBLIC "-//W3C//DTD SVG 1.1//EN" "http://www.w3.org/Graphics/SVG/1.1/DTD/svg11.dtd">
<svg version="1.1" id="Layer_1" xmlns="http://www.w3.org/2000/svg" xmlns:xlink="http://www.w3.org/1999/xlink" x="0px" y="0px"
	 width="100.25px" height="100.25px" viewBox="0 0 100.25 100.25" enable-background="new 0 0 100.25 100.25" xml:space="preserve">
<path d="M21.072,66.467c0,3.215,1.417,6.064,3.632,8.062v6.465c0,1.996,1.635,3.631,3.631,3.631h3.632
	c2.016,0,3.631-1.635,3.631-3.631v-3.631h29.053v3.631c0,1.996,1.617,3.631,3.631,3.631h3.632c1.997,0,3.632-1.635,3.632-3.631
	v-6.465c2.216-1.998,3.632-4.848,3.632-8.062V30.152c0-12.71-13.002-14.526-29.053-14.526c-16.052,0-29.053,1.816-29.053,14.526
	V66.467z M33.782,70.1c-3.014,0-5.447-2.434-5.447-5.447c0-3.016,2.433-5.447,5.447-5.447c3.015,0,5.448,2.432,5.448,5.447
	C39.23,67.666,36.797,70.1,33.782,70.1z M66.467,70.1c-3.015,0-5.447-2.434-5.447-5.447c0-3.016,2.433-5.447,5.447-5.447
	s5.447,2.432,5.447,5.447C71.914,67.666,69.481,70.1,66.467,70.1z M71.914,48.31H28.335V30.152h43.579V48.31z"/>
</svg>
